<?xml version="1.0" encoding="UTF-8"?>
<!-- Generator: Adobe Illustrator 26.5.0, SVG Export Plug-In . SVG Version: 6.00 Build 0)  -->
<svg version="1.1" id="Layer_1" xmlns="http://www.w3.org/2000/svg" xmlns:xlink="http://www.w3.org/1999/xlink" x="0px" y="0px" viewBox="0 0 726.63 725.14" style="enable-background:new 0 0 726.63 725.14;" xml:space="preserve">
<style type="text/css">
	
		.st0{clip-path:url(#SVGID_00000045597144705619738410000012559806019465669017_);fill:url(#SVGID_00000073680824427334319360000007879427389546645678_);}
	
		.st1{clip-path:url(#SVGID_00000057836039891506482590000014840644672756663964_);fill:url(#SVGID_00000155859941003490507500000006442360561686915247_);}
	
		.st2{clip-path:url(#SVGID_00000011001321340943996790000002240002785656183701_);fill:url(#SVGID_00000127742592164098281290000017984244013692064188_);}
	
		.st3{clip-path:url(#SVGID_00000116194013313252979250000013019261433603473550_);fill:url(#SVGID_00000039837599467184296770000013989025283890552749_);}
	.st4{fill:none;stroke:#F0EDDA;stroke-width:1.411;stroke-miterlimit:10;}
	.st5{fill:none;stroke:#F0EDDA;stroke-width:0.91;stroke-miterlimit:10;}
	.st6{fill:none;stroke:#F0EDDA;stroke-width:2.731;stroke-miterlimit:10;}
	.st7{fill:none;stroke:#F0EDDA;stroke-width:1.821;stroke-miterlimit:10;}
	.st8{fill:none;stroke:#F0EDDA;stroke-width:3.642;stroke-miterlimit:10;}
	.st9{fill:none;stroke:#F0EDDA;stroke-width:0.471;stroke-miterlimit:10;}
	.st10{fill:none;stroke:#F0EDDA;stroke-width:0.683;stroke-miterlimit:10;}
	.st11{fill:none;stroke:#F0EDDA;stroke-width:0.94;stroke-miterlimit:10;}
	
		.st12{clip-path:url(#SVGID_00000029739292404106381850000016639993092140005511_);fill:url(#SVGID_00000090985268157727183450000013177145583081674126_);}
	.st13{fill:#851F2C;}
	
		.st14{clip-path:url(#SVGID_00000044150604890291798970000001715089427278158762_);fill:url(#SVGID_00000078008612213560935670000017353234564564429208_);}
	
		.st15{clip-path:url(#SVGID_00000106149693654281933690000016579956640610847880_);fill:url(#SVGID_00000103979874067145123210000006043744444264370108_);}
	.st16{fill:none;stroke:#851F2C;stroke-width:0.228;stroke-miterlimit:10;}
	
		.st17{clip-path:url(#SVGID_00000050645510827511426230000007305562146651518627_);fill:url(#SVGID_00000062890545760338220060000005918671681140647354_);}
	.st18{fill:none;stroke:#851F2C;stroke-width:0.091;stroke-miterlimit:10;}
	
		.st19{clip-path:url(#SVGID_00000146476947167187232020000006512802996118894725_);fill:url(#SVGID_00000098924532833112058320000011599097164135707319_);}
	.st20{fill:none;stroke:#851F2C;stroke-width:0.014;stroke-miterlimit:10;}
	
		.st21{clip-path:url(#SVGID_00000125598226504256972180000002036628684466738332_);fill:url(#SVGID_00000159448040322952220550000000814118229251485851_);}
	.st22{fill:none;stroke:#E0A4B6;stroke-width:0.05;stroke-miterlimit:10;}
	.st23{fill:none;stroke:#7E75A7;stroke-width:0.228;stroke-miterlimit:10;}
	.st24{fill:none;stroke:#7E75A7;stroke-width:0.137;stroke-miterlimit:10;}
	.st25{fill:none;stroke:#7E75A7;stroke-width:0.046;stroke-miterlimit:10;}
</style>
<g>
	<g>
		<g>
			<defs>
				<path id="SVGID_1_" d="M495.86,544.76c38.72,56.65,64.6,94.44,77.62,113.34c0.12-0.08,0.22-0.15,0.33-0.23      c-12.78-19.01-38.35-56.81-76.73-113.43C496.67,544.55,496.26,544.65,495.86,544.76 M571.47,659.51      c0.04-0.03,0.09-0.06,0.13-0.1c-8.19-12.36-33.75-50.49-76.69-114.4c-0.3,0.08-0.58,0.15-0.87,0.22      C537.27,609.17,563.07,647.26,571.47,659.51 M498.37,544.07c43.53,63.62,69.25,101.13,77.16,112.55      c0.03-0.03,0.07-0.05,0.12-0.08c-7.75-11.52-33.25-49.09-76.52-112.68C498.88,543.93,498.62,544,498.37,544.07 M553,635.14      c0.19-0.13-20.29-29.88-61.44-89.25c-0.5,0.12-0.98,0.24-1.48,0.37C531.85,605.64,552.82,635.27,553,635.14 M502.6,542.85      c25.86,36.79,51.72,73.58,77.58,110.36c0.66-0.5,1.32-0.99,1.99-1.5c-21.55-29.51-43.1-59.04-64.63-88.55      c0.93-0.65,1.87-1.28,2.81-1.93c31.03,41.05,46.68,61.47,46.93,61.28c0.29-0.21-19.48-27.33-59.33-81.32      C506.16,541.77,504.38,542.33,502.6,542.85 M561.15,666.49c0.01-0.01,0-0.01,0.02-0.01c-26.18-39.5-52.35-79-78.54-118.5      c-0.03,0.01-0.08,0.01-0.12,0.02C508.73,587.48,534.94,626.98,561.15,666.49 M510.84,599.4      c-10.83-16.86-21.64-33.71-32.47-50.57c-0.05,0.02-0.09,0.02-0.14,0.02C489.11,565.71,499.98,582.56,510.84,599.4 M513.99,539.2      c42.35,49.34,70.69,82.34,85.03,98.97c0.05-0.05,0.1-0.09,0.15-0.14c-14.22-16.7-42.4-49.71-84.58-99.04      C514.39,539.06,514.18,539.12,513.99,539.2 M516.78,538.21c27.14,31.17,40.72,46.73,40.76,46.71      c0.03-0.02-13.48-15.62-40.52-46.79C516.93,538.14,516.85,538.18,516.78,538.21 M474.35,552.49      c40.07,63.93,60.2,95.86,60.38,95.75c0.17-0.11-20.05-32.96-60.67-98.56c-0.38,0.07-0.77,0.13-1.15,0.21      C473.38,550.73,473.86,551.61,474.35,552.49 M193.43,628.7c0.89-1.38,1.78-2.77,2.66-4.15      C194.38,627.22,193.41,628.72,193.43,628.7 M520.13,536.98c41.97,45.48,63.06,68.13,63.25,67.95      c0.19-0.18-20.37-23.03-61.7-68.54C521.17,536.59,520.65,536.78,520.13,536.98 M542.24,677.96c0.79-0.45,1.58-0.9,2.36-1.35      c-24.74-42.1-49.48-84.22-74.22-126.32c-0.81,0.13-1.63,0.26-2.46,0.4C492.7,593.12,517.47,635.54,542.24,677.96 M528.2,685.52      c-21.95-44.67-43.9-89.34-65.85-134.01c-0.9,0.12-1.81,0.24-2.71,0.35C482.49,596.41,505.35,640.97,528.2,685.52 M534.17,531.26      c29.13,28.63,58.25,57.28,87.38,85.91c0.16-0.16,0.33-0.34,0.5-0.51c-28.16-28.99-56.34-57.96-84.52-86.92      C536.4,530.27,535.3,530.76,534.17,531.26 M456.25,563.74l-3.68-11.09c-0.18,0.01-0.37,0.03-0.55,0.06L456.25,563.74z       M539.83,528.67c19.1,16.8,38.2,33.6,57.31,50.42c-18.19-17.24-36.37-34.47-54.57-51.71      C541.66,527.81,540.76,528.25,539.83,528.67 M501.95,688.16c0.52-0.24,1.04-0.5,1.57-0.76l-57.64-134.18      c-1.41,0.1-2.82,0.2-4.23,0.27C461.75,598.39,481.86,643.26,501.95,688.16 M460.45,637.04c0.43-0.15-25.99-72.09-24.52-72.65      c1.14-0.44,18.57,42.12,35.81,84.74c7.5,18.54,14.97,37.09,21.04,52.11c0.43-0.16,0.84-0.32,1.28-0.48      c-12.06-31.6-32.14-83.61-56.76-147.04c-2.65,0.11-5.31,0.18-7.96,0.2C449.65,609.48,460.03,637.19,460.45,637.04 M558.8,518.82      c52.4,43.11,81.36,66.9,86.86,71.37c0-0.01,0.01-0.02,0.03-0.02c-5.45-4.55-34.33-28.39-86.61-71.5      C558.99,518.72,558.9,518.77,558.8,518.82 M469.28,674.9c0.15-0.05-13.26-40.39-40.23-120.99c-0.33-0.01-0.65,0-0.98,0      C455.39,634.64,469.12,674.95,469.28,674.9 M562.53,516.64c40.79,33.18,61.24,49.71,61.36,49.57c0.11-0.15-20-16.87-60.36-50.16      C563.21,516.24,562.88,516.45,562.53,516.64 M457.34,679.67c0.22-0.06-11.39-41.93-34.84-125.75c-0.48,0-0.95-0.02-1.43-0.03      C445.04,637.84,457.12,679.72,457.34,679.67 M447.7,653.52c0.1-0.02-9.13-33.25-27.68-99.66c-0.21,0-0.4,0-0.61-0.02      C438.18,620.33,447.61,653.55,447.7,653.52 M564.58,515.42c29.55,23.82,58.73,46.06,87.33,66.85c0.25-0.34,0.5-0.65,0.75-0.98      c-28.39-22.54-56.78-45.1-85.18-67.65C566.52,514.24,565.55,514.83,564.58,515.42 M456.12,706.64      c-13.81-50.98-27.62-101.97-41.44-152.95c-0.12-0.01-0.24-0.01-0.35-0.02C428.28,604.65,442.2,655.65,456.12,706.64       M442.17,665.06c0.02,0-9.96-37.18-29.94-111.5c-0.03,0-0.06-0.01-0.09,0C432.16,627.91,442.16,665.07,442.17,665.06       M574.08,509.37c28.7,20.55,57.39,41.11,86.09,61.66c0.03-0.05,0.08-0.1,0.1-0.15c-28.44-20.7-56.88-41.4-85.33-62.1      C574.64,508.99,574.38,509.18,574.08,509.37 M576.78,507.54c40.42,28.84,60.66,43.24,60.69,43.21      c0.02-0.04-20.12-14.5-60.44-43.37C576.95,507.44,576.86,507.49,576.78,507.54 M437.74,681.78      c0.12-0.04-12.65-51.3-30.81-128.56c-0.5-0.03-0.98-0.07-1.47-0.12C430.29,652.7,437.64,681.8,437.74,681.78 M434.89,682.55      c0.01-0.01-10.47-43.2-31.45-129.6c-0.02-0.01-0.05,0-0.08-0.01C424.36,639.34,434.87,682.56,434.89,682.55 M580.94,504.64      c33.06,24.57,49.66,36.75,49.81,36.55c0.15-0.2-16.04-12.69-48.54-37.46C581.78,504.04,581.36,504.34,580.94,504.64       M583.08,503.1c36.87,22.85,65.78,40.73,86.69,53.64c0.16-0.24,0.31-0.49,0.45-0.73c-20.71-13.03-49.32-30.99-85.85-53.88      C583.96,502.47,583.53,502.79,583.08,503.1 M421.14,684.9c-4.32-42.67-11.06-86.85-20.77-132.24c-1.14-0.11-2.26-0.23-3.39-0.36      C405.03,596.51,413.09,640.71,421.14,684.9 M420.32,720.58c0.03-0.01,0.06,0,0.09-0.02c-3.71-22.85-12.91-79.09-27.61-168.75      c-0.13-0.01-0.24-0.03-0.36-0.05C407.23,641.47,416.52,697.75,420.32,720.58 M401.91,661.6c-4.43-36.78-8.86-73.57-13.3-110.34      c-0.2-0.02-0.41-0.06-0.6-0.09C392.64,587.98,397.27,624.79,401.91,661.6 M393.25,635.16c0.35-0.05,0.7-0.11,1.06-0.16      c-2.67-28.02-5.32-56.06-7.98-84.09c-0.61-0.09-1.2-0.19-1.81-0.28C387.42,578.81,390.33,606.99,393.25,635.16 M596.9,492.33      c37.07,21.48,55.61,32.15,55.66,32.07c0.05-0.09-18.34-10.91-55.16-32.49C597.23,492.06,597.07,492.19,596.9,492.33       M392.38,685.14c-4.06-45.07-8.1-90.14-12.16-135.22c-0.1-0.02-0.19-0.03-0.29-0.05C384.08,594.95,388.22,640.05,392.38,685.14       M383.04,691.14c0.34-0.02-2.01-47.35-7.05-141.99c-0.68-0.13-1.37-0.26-2.05-0.4C379.68,643.69,382.7,691.16,383.04,691.14       M603.88,486.29c27.16,14.52,54.32,29.02,81.49,43.54c0.01-0.04,0.02-0.04,0.04-0.06c-27.07-14.59-54.14-29.17-81.22-43.75      C604.08,486.11,603.97,486.2,603.88,486.29 M371.42,725.05c1.11-0.03,2.21-0.06,3.32-0.09l-3.96-176.87      c-1.06-0.22-2.12-0.46-3.18-0.69C368.89,606.61,370.16,665.83,371.42,725.05 M365.33,725.14c0.2,0,0.38,0,0.58,0      c0.16-24.18,0.14-83.58-0.05-178.15c-0.76-0.17-1.52-0.36-2.27-0.54C364.35,641.36,364.93,700.92,365.33,725.14 M614.46,476.29      c33.26,15.42,49.89,23.1,49.9,23.08c0.02-0.03-16.58-7.77-49.77-23.21C614.54,476.21,614.51,476.24,614.46,476.29 M349.2,724.9      c0.02,0.01,0.03,0,0.05,0c1.04-31.3,3.01-91.51,5.93-180.63c-0.06-0.02-0.1-0.04-0.16-0.05      C352.14,633.37,350.21,693.59,349.2,724.9 M617.92,472.75c31.94,15.27,47.94,22.85,47.99,22.73s-15.77-7.87-47.46-23.29      C618.28,472.39,618.11,472.58,617.92,472.75 M338.36,724.33L338.36,724.33c0.19-0.36,4.22-60.83,12.09-181.43      c-0.33-0.1-0.65-0.2-0.97-0.29C341.93,663.39,338.22,723.95,338.36,724.33 M623.58,466.73c34.85,15.32,60.08,26.41,75.71,33.27      c0.01-0.02,0.01-0.04,0.02-0.05c-15.62-6.89-40.84-17.99-75.64-33.32C623.63,466.66,623.61,466.69,623.58,466.73 M331.35,723.8      c0.76,0.06,1.56,0.13,2.32,0.19c4.94-60.55,9.87-121.12,14.82-181.68c-1.08-0.33-2.17-0.68-3.26-1.02      C340.6,602.14,335.98,662.96,331.35,723.8 M323.77,723.07c0.01,0,0.02,0.01,0.03,0c1.08-9.65,7.61-70.42,19.59-182.37      c-0.12-0.03-0.21-0.07-0.32-0.11C331.18,652.57,324.74,713.4,323.77,723.07 M321.19,674.27c0.09,0.01,6.48-44.84,19.15-134.59      c-0.18-0.06-0.35-0.12-0.53-0.17C327.3,629.33,321.1,674.26,321.19,674.27 M629.89,459.52c31.34,11.59,47,17.37,47.01,17.37      c0-0.01-15.66-5.8-46.97-17.41C629.91,459.49,629.9,459.52,629.89,459.52 M301.43,689.72c0.37,0.07,8.87-41.46,25.54-124.61      c-9.7,72.19-14.33,108.32-13.9,108.38c0.49,0.08,7.36-45.32,20.63-136.18c-1.13-0.42-2.26-0.84-3.39-1.28      C310.66,638.41,301.03,689.64,301.43,689.72 M635.67,452.43c32.55,11.39,56.55,19.77,71.99,25.16c0.02-0.05,0.02-0.08,0.04-0.11      c-15.41-5.43-39.36-13.85-71.86-25.26C635.79,452.29,635.72,452.35,635.67,452.43 M308.35,624.93      c0.06,0.02,6.25-30.06,18.61-90.23c-0.1-0.05-0.21-0.09-0.31-0.12C314.4,594.8,308.29,624.91,308.35,624.93 M292.81,677      c0.32,0.07,11-47.65,32.01-143.17c-0.64-0.27-1.27-0.53-1.91-0.8C302.51,628.94,292.47,676.93,292.81,677 M641.52,444.74      c23.18,7.42,46.35,14.83,69.53,22.25l0-0.01c-23.15-7.44-46.31-14.9-69.45-22.35C641.57,444.67,641.54,444.7,641.52,444.74       M271.86,713.65c1.66,0.44,3.34,0.84,5,1.25c14.78-60.87,29.56-121.74,44.34-182.6c-0.74-0.32-1.48-0.65-2.21-0.97      C314.2,555.35,298.49,616.12,271.86,713.65 M269.99,649.15c1.18,0.44,2.36,0.86,3.53,1.3c20.63-63.14,34.48-103.43,41.54-120.89      c-0.32-0.15-0.64-0.31-0.96-0.44C299.4,569.13,284.69,609.14,269.99,649.15 M238.17,703.2c0.04,0.01,0.07,0.02,0.1,0.04      c9.69-25.02,32.53-84.23,68.54-177.64c-0.12-0.06-0.24-0.13-0.37-0.18C270.53,618.87,247.76,678.14,238.17,703.2 M652.27,428.89      c27.4,7.48,48.85,13.32,64.34,17.56c0.01-0.04,0.02-0.07,0.02-0.11c-21.4-5.93-42.78-11.84-64.18-17.76      C652.39,428.7,652.33,428.8,652.27,428.89 M654.09,425.97c21.29,4.88,42.57,9.76,63.87,14.65c0.18-0.77,0.34-1.58,0.52-2.35      c-21.09-4.71-42.19-9.42-63.28-14.14C654.83,424.74,654.46,425.34,654.09,425.97 M237.98,657.88c0.71,0.29,1.43,0.59,2.13,0.88      c19.34-45.92,38.67-91.85,58-137.77c-0.95-0.54-1.92-1.06-2.87-1.61L237.98,657.88z M237.02,633.39      c18.5-38.52,37-77.04,55.5-115.57c-0.81-0.47-1.6-0.95-2.4-1.42C272.43,555.39,254.73,594.39,237.02,633.39 M660.4,415.03      l56.7,10.1c0.26-1.04,0.53-2.07,0.79-3.11l-55.62-10.5C661.67,412.7,661.03,413.86,660.4,415.03 M216.53,641.09      c1.72,0.8,3.42,1.6,5.14,2.4l66.57-128.23c-1.3-0.78-2.61-1.6-3.9-2.41C261.73,555.59,239.13,598.34,216.53,641.09       M256.36,557.98c8.47-15.6,16.93-31.2,25.39-46.79c-0.06-0.05-0.12-0.07-0.19-0.12C273.16,526.7,264.75,542.33,256.36,557.98       M197.07,648.19c0.13,0.08,27.56-46.1,82.32-138.55c-0.25-0.17-0.52-0.34-0.76-0.51C224.13,601.76,196.94,648.11,197.07,648.19       M211.56,622.24c0.03,0.02,21.71-38.15,65.04-114.46c-0.04-0.02-0.08-0.05-0.12-0.07C233.2,584.04,211.56,622.23,211.56,622.24       M196.09,624.56c5.12-7.97,16.92-26.28,28.88-44.62c16.17-24.8,32.65-49.7,33.35-49.25c1.45,0.91-62.99,106.55-62.86,106.64      c0.1,0.06,28.44-46.57,79.45-130.71c-0.71-0.49-1.39-0.98-2.09-1.46C247.25,544.94,221.67,584.76,196.09,624.56 M162.38,664.92      c0.71,0.47,1.42,0.94,2.14,1.4c35.45-54.2,70.9-108.38,106.35-162.59c-0.3-0.22-0.62-0.45-0.92-0.66      C234.09,557.01,198.23,610.96,162.38,664.92 M159.84,663.22c36.09-53.84,72.18-107.67,108.26-161.51      c-0.06-0.05-0.15-0.11-0.21-0.15C231.89,555.44,195.86,609.34,159.84,663.22 M671.82,391.4c23.68,2.83,41.34,4.95,53.01,6.33      c0-0.05,0.01-0.08,0.01-0.15c-11.66-1.42-29.29-3.59-52.91-6.46C671.89,391.22,671.85,391.31,671.82,391.4 M172.06,630.12      c0.13,0.09,29.45-39.68,93.91-129.61l0.19-0.26c-0.25-0.19-0.49-0.37-0.74-0.56C201.12,589.88,171.92,630.03,172.06,630.12       M183.07,603.78c0.23,0.16,26.97-35.06,80.26-105.69c-0.12-0.09-0.22-0.17-0.34-0.27c-0.29-0.28-0.58-0.58-0.87-0.86      C209.19,567.99,182.85,603.61,183.07,603.78 M175.22,600.37c0.02,0.03,27.96-35.37,83.81-106.21c-0.05-0.04-0.12-0.1-0.18-0.15      C203.07,564.88,175.18,600.34,175.22,600.37 M128.33,639.98c0.05,0.04,0.1,0.08,0.16,0.14c0.52,0.44,1.05,0.88,1.57,1.31      l126.02-149.7c-0.66-0.53-1.29-1.08-1.95-1.62c-0.1-0.08-0.21-0.18-0.31-0.27C211.99,539.91,170.16,589.95,128.33,639.98       M678.68,373.38c15.87,1.19,31.74,2.38,47.61,3.58l-0.01-0.01c-15.87-1.2-31.73-2.4-47.61-3.6      C678.69,373.36,678.69,373.37,678.68,373.38 M144.77,606.73c0.8,0.69,1.61,1.38,2.4,2.07c35.12-40.01,70.24-80.02,105.37-120.05      c-0.56-0.49-1.13-0.99-1.68-1.48C215.5,527.1,180.13,566.93,144.77,606.73 M134.69,597.15c0.15,0.16,37.1-38.13,110.79-114.85      c-0.32-0.3-0.63-0.62-0.95-0.92C171.13,558.41,134.53,596.99,134.69,597.15 M115.48,602.85l104.38-99.29L244,480.84      c-0.4-0.4-0.78-0.79-1.18-1.2L115.48,602.85z M682.78,360.23c14.61-0.01,29.23-0.02,43.85-0.02l0.01-0.02      c-14.61,0-29.22,0.01-43.83,0C682.78,360.19,682.77,360.22,682.78,360.23 M196.46,520.03l44.65-42.13      c-0.03-0.03-0.07-0.07-0.1-0.11L196.46,520.03z M184.86,526.53l54.67-50.31c-0.03-0.04-0.07-0.07-0.1-0.12L184.86,526.53z       M93.66,604.67c0.08,0.09,0.16,0.19,0.22,0.28c0.51,0.62,1,1.24,1.51,1.85c0.05,0.07,0.11,0.12,0.15,0.2      c47.81-43.79,95.61-87.58,143.42-131.35c-0.48-0.51-0.95-1.03-1.42-1.55C189.59,517.61,141.63,561.13,93.66,604.67       M122.94,560.46c0.05,0.05,36.66-30.61,109.81-91.94c-0.08-0.09-0.17-0.2-0.25-0.31C159.41,529.67,122.9,560.41,122.94,560.46       M126.64,549.89c0.05,0.05,34.59-28.08,103.67-84.41c-0.08-0.09-0.15-0.2-0.22-0.29C161.09,521.6,126.61,549.84,126.64,549.89       M104.68,553.85c0.12,0.15,41.58-29.77,124.5-89.81c-0.22-0.29-0.44-0.59-0.67-0.89C145.83,523.49,104.59,553.7,104.68,553.85       M101.51,549.62c42.05-29.2,84.09-58.41,126.14-87.62c-0.06-0.09-0.12-0.16-0.18-0.26C185.48,491.04,143.5,520.33,101.51,549.62       M101.66,535.03c0.02,0.01,40.43-26.57,121.23-79.76c-0.03-0.04-0.05-0.08-0.08-0.13C142.03,508.39,101.65,535,101.66,535.03       M77.95,535.95c0.02,0.05,47.67-27.89,142.92-83.77c-0.05-0.08-0.09-0.16-0.15-0.23C125.5,507.92,77.93,535.91,77.95,535.95       M91.8,520.46c0.07,0.12,42.26-23.96,126.58-72.3c-0.15-0.26-0.3-0.5-0.46-0.76C133.78,495.98,91.73,520.33,91.8,520.46       M52.34,533.77c0.32,0.81,0.64,1.63,0.97,2.45c54.56-30.11,109.15-60.25,163.7-90.36c-0.45-0.78-0.9-1.56-1.33-2.36      C207.44,449.14,150.5,480.55,52.34,533.77 M82.97,509.3c-0.19,0.1,31.3-16.09,63.76-32.56c30.5-15.46,61.88-31.16,68.64-33.78      c-0.37-0.68-0.75-1.36-1.11-2.04C170.5,463.71,126.74,486.51,82.97,509.3 M65.69,506.2c49.2-22.39,98.38-44.78,147.57-67.18      c-0.54-1.05-1.07-2.1-1.6-3.16C163.01,459.29,114.35,482.75,65.69,506.2 M75.42,496.09c0.03,0.07,45.16-20.65,135.34-62.15      c-0.08-0.14-0.14-0.29-0.21-0.43C120.42,475.17,75.39,496.01,75.42,496.09 M77.53,481.19c0.06,0.16,43.48-17.81,130.25-53.88      c-0.14-0.31-0.26-0.62-0.38-0.92C120.75,462.78,77.45,481.04,77.53,481.19 M75.6,476.3c0.01-0.01,43.7-17.35,130.93-51.99l0,0      C119.2,459,75.6,476.3,75.6,476.3 M37.91,481.74c0.01,0.08,0.02,0.16,0.04,0.24c30.53-10.82,99.88-35.61,167.64-60.06      c-0.11-0.29-0.22-0.59-0.33-0.88C137.62,445.7,68.38,470.69,37.91,481.74 M118.19,442.26c0.03,0.09,28.38-8.88,85.04-26.88      c-0.06-0.17-0.12-0.34-0.17-0.51C146.46,433.04,118.17,442.18,118.19,442.26 M48.22,462.02c0.06,0.18,51.59-15.8,154.59-47.95      c-0.12-0.36-0.23-0.71-0.35-1.08C99.56,445.5,48.15,461.83,48.22,462.02 M54.49,452.59c0.15,0.49,0.28,1,0.42,1.5      c48.86-14.73,97.73-29.47,146.59-44.19c-0.09-0.28-0.16-0.56-0.25-0.84C152.33,423.57,103.41,438.09,54.49,452.59       M199.95,404.34c-0.06-0.2-0.11-0.4-0.15-0.6c-48.86,12.53-97.72,25.06-146.57,37.59C102.12,428.99,151.02,416.66,199.95,404.34       M41.43,437.59c52.56-12.2,105.12-24.38,157.68-36.57c-0.1-0.46-0.21-0.91-0.33-1.36c-52.44,12.01-104.9,24.02-157.35,36.03      C41.43,436.31,41.43,436.96,41.43,437.59 M46,427.61c0.03,0.19,50.86-9.65,152.43-29.53c-0.08-0.39-0.17-0.77-0.26-1.17      c-98.67,19.71-149.34,29.93-152.06,30.66C46.04,427.59,46,427.6,46,427.61 M34.35,424.32c54.37-10.28,108.74-20.56,163.11-30.84      c-0.17-0.88-0.33-1.78-0.49-2.66c-54.15,10.12-108.31,20.27-162.47,30.4C34.45,422.24,34.4,423.27,34.35,424.32 M196.27,386.56      c-0.01-0.03-0.01-0.08-0.02-0.11C91.93,400.47,39.7,407.5,39.56,407.53C39.56,407.55,91.82,400.56,196.27,386.56 M194.48,366.98      c0-0.04,0-0.08,0-0.12c-9.14,0.19-18.3,0.38-27.44,0.58C176.19,367.28,185.34,367.13,194.48,366.98 M194.41,359.47      L194.41,359.47l-7.86,0.4L194.41,359.47z M36.55,400.23c53.07-5.75,106.15-11.51,159.23-17.27c-0.07-0.52-0.13-1.02-0.19-1.53      c-52.94,5.81-105.9,11.64-158.85,17.45C36.67,399.33,36.61,399.77,36.55,400.23 M37.14,396.11      c22.48-1.96,75.28-6.87,158.43-14.74c-0.07-0.61-0.14-1.25-0.21-1.86c-82.94,8.3-135.64,13.66-158.14,16.08      C37.21,395.75,37.17,395.93,37.14,396.11 M39.24,384.21c32.01-1.85,83.9-4.95,155.68-9.33c-0.06-0.71-0.11-1.43-0.16-2.14      c-71.56,4.76-123.34,8.26-155.34,10.5C39.38,383.58,39.32,383.89,39.24,384.21 M40.95,376.36c3.36-0.18,6.9-0.37,10.63-0.58      c47.62-3.5,95.24-7,142.87-10.52c0-0.08-0.01-0.17,0-0.24c-46.84,3.39-93.69,6.79-140.55,10.17c-4.55,0.27-8.83,0.53-12.86,0.76      C41,376.08,40.98,376.21,40.95,376.36 M44.89,361.34c49.84,0.36,99.67,0.7,149.5,1.05c0-0.37,0-0.76-0.01-1.13      c-49.81-0.06-99.63-0.11-149.44-0.16C44.94,361.19,44.92,361.27,44.89,361.34 M51.73,353.04c-0.01,0.15,47.57,1.35,142.73,3.59      c0-0.32,0.01-0.63,0.03-0.96C99.85,353.77,52.28,352.89,51.73,353.04L51.73,353.04 M49.77,346.43      c48.27,2.09,96.57,4.17,144.86,6.27c0.03-0.51,0.05-1,0.08-1.49c-28.59-1.01-57.17-2.01-85.74-3.03      c-19.7-0.64-39.41-1.29-59.11-1.94C49.81,346.3,49.79,346.37,49.77,346.43 M55.79,331.2c46.43,5,92.86,10,139.27,15      c0.08-0.89,0.17-1.79,0.27-2.68c-46.21-4.83-92.4-9.64-138.62-14.46C56.41,329.77,56.1,330.49,55.79,331.2 M58.45,325.27      c11.44,1.49,57.1,7.22,137.01,17.16c0.02-0.19,0.04-0.38,0.06-0.57c-79.87-9.77-125.54-15.33-137.04-16.67      C58.47,325.2,58.45,325.24,58.45,325.27 M59.03,324c23.32,2.76,68.92,8,136.75,15.74c0.08-0.6,0.16-1.2,0.25-1.81      c-4.83-0.37-9.66-0.72-14.49-1.08c-59.83-6.56-100.59-10.99-122.3-13.28C59.17,323.71,59.11,323.86,59.03,324 M198.12,326.04      c-0.01-0.01,0.01-0.02,0-0.03c-26.7-6.14-53.42-12.27-80.13-18.42C144.71,313.75,171.41,319.9,198.12,326.04 M81.14,316.45      c-0.05,0.28,38.24,7.4,114.89,21.39c0.07-0.54,0.15-1.09,0.23-1.63C120.14,322.88,81.77,316.28,81.14,316.45L81.14,316.45       M443.6,213.49c0.57,0.31,1.15,0.64,1.73,0.96l0.43-0.86c-0.56-0.36-1.1-0.72-1.66-1.08L443.6,213.49z M440.4,211.79      c0.77,0.4,1.54,0.8,2.29,1.22l0.5-1.06c-0.74-0.48-1.48-0.94-2.22-1.4L440.4,211.79z M436.14,209.64      c0.62,0.3,1.24,0.6,1.85,0.91l0.64-1.45c-0.6-0.37-1.2-0.73-1.8-1.09L436.14,209.64z M431.74,207.6L431.74,207.6l0.83-2.09      l-0.01,0L431.74,207.6z M426.28,205.28c1.21,0.49,2.42,0.99,3.62,1.52c0.31-0.69,0.62-1.39,0.93-2.08l-3.62-2.03      C426.9,203.55,426.58,204.41,426.28,205.28 M421.91,203.56c0.21,0.08,0.4,0.15,0.61,0.23l0.99-3.25      c-0.18-0.1-0.35-0.19-0.54-0.28L421.91,203.56z M198.6,323.86c0.17-0.7,0.32-1.39,0.49-2.09      c-41.02-9.54-82.02-19.07-123.04-28.61C116.9,303.39,157.75,313.62,198.6,323.86 M208.24,294.43c0.07-0.17,0.14-0.33,0.21-0.49      c-17.99-7.4-35.97-14.81-53.95-22.23C172.42,279.3,190.32,286.87,208.24,294.43 M419.59,202.72c0.13,0.05,0.27,0.09,0.4,0.14      c0.39-1.17,0.77-2.34,1.17-3.53c-0.12-0.06-0.25-0.13-0.37-0.19C420.39,200.35,420,201.53,419.59,202.72 M414.58,201.02      c0.01,0,0.02,0.01,0.04,0.01l1.58-4.15c-0.01,0-0.03-0.02-0.04-0.02C415.64,198.25,415.11,199.63,414.58,201.02 M187.32,299.84      c5.49,1.96,11,3.93,16.5,5.89c0.31-0.9,0.64-1.79,0.96-2.68c-26.32-9.35-52.63-18.69-78.97-28.03      C146.33,283.3,166.83,291.56,187.32,299.84 M412.52,200.37c0.09,0.02,0.18,0.06,0.27,0.08c0.56-1.47,1.11-2.94,1.65-4.41      c-0.08-0.04-0.17-0.08-0.25-0.12C413.64,197.4,413.08,198.89,412.52,200.37 M411.05,199.93c0.04,0.01,0.08,0.02,0.12,0.03      l1.65-4.69c-0.04-0.01-0.07-0.03-0.1-0.05C412.16,196.79,411.6,198.36,411.05,199.93 M82.54,283.51      c39.38,10.74,78.76,21.46,118.14,32.2c0.11-0.41,0.23-0.81,0.34-1.2c-39.39-10.46-78.8-20.94-118.2-31.4      C82.72,283.25,82.62,283.39,82.54,283.51 M407.01,198.78c0.02,0.01,0.06,0.02,0.09,0.01c0.49-1.83,0.97-3.65,1.46-5.47      c-0.02-0.01-0.05-0.02-0.06-0.03C408,195.12,407.51,196.96,407.01,198.78 M405.13,198.29L405.13,198.29      c0.44-1.95,0.9-3.91,1.34-5.87l0,0C406.03,194.37,405.58,196.33,405.13,198.29 M86.33,278.27      c38.42,11.43,76.85,22.87,115.27,34.3c0.1-0.33,0.2-0.67,0.3-1c-38.46-11.2-76.89-22.39-115.35-33.61      C86.48,278.07,86.41,278.17,86.33,278.27 M399.14,196.84c0.4,0.09,0.8,0.17,1.2,0.27l1.05-6.85c-0.39-0.16-0.8-0.32-1.19-0.49      L399.14,196.84z M396.34,196.27c0.37,0.08,0.75,0.15,1.12,0.23l1.01-7.4c-0.39-0.15-0.75-0.29-1.13-0.44L396.34,196.27z       M95.14,267.02c33.21,11.94,66.41,23.88,99.63,35.82c-2.48-1-4.96-2.01-7.44-3c-30.71-10.95-61.43-21.91-92.14-32.88      C95.17,266.98,95.15,267.01,95.14,267.02 M390.62,195.22c0.85,0.15,1.71,0.28,2.55,0.44l0.81-8.3      c-0.81-0.31-1.64-0.61-2.45-0.91C391.23,189.37,390.93,192.3,390.62,195.22 M386.48,194.58c0.97,0.14,1.94,0.28,2.9,0.43      c0.47-2.94,0.94-5.89,1.4-8.83c-0.89-0.32-1.77-0.63-2.65-0.94C387.58,188.35,387.03,191.47,386.48,194.58 M214.13,282.23      c0.35-0.65,0.7-1.29,1.05-1.94l-60.27-32.96L214.13,282.23z M382.48,194.06C382.49,194.07,382.48,194.06,382.48,194.06      c0.5-3.6,0.98-7.03,1.43-10.26l-0.01,0.01C383.46,187.04,382.98,190.46,382.48,194.06 M380.81,193.87c0.03,0,0.06,0.01,0.1,0.02      c0.48-3.53,0.98-7.06,1.46-10.58c-0.04-0.01-0.06-0.02-0.09-0.02C381.79,186.81,381.29,190.35,380.81,193.87 M102.27,258.75      c34.33,14.34,68.67,28.69,102.99,43.03c0.32-0.83,0.63-1.65,0.96-2.48c-34.21-14.01-68.41-28.01-102.62-42.02      C103.15,257.76,102.72,258.25,102.27,258.75 M105.43,255.29c33.86,14.04,67.71,28.08,101.56,42.11c0.03-0.06,0.05-0.1,0.07-0.17      c-33.87-14-67.73-28-101.59-41.99C105.45,255.27,105.43,255.28,105.43,255.29 M375.88,193.43c0.39,0.03,0.76,0.06,1.16,0.09      l0.06-11.86c-0.4-0.12-0.83-0.24-1.23-0.36L375.88,193.43z M370.09,193.08c0.17,0.01,0.35,0.01,0.51,0.02      c0.15-4.39,0.32-8.79,0.48-13.18c-0.15-0.04-0.33-0.09-0.48-0.13C370.43,184.23,370.25,188.66,370.09,193.08 M365.64,192.96      c0.76,0.01,1.52,0.04,2.29,0.06c0.25-4.57,0.51-9.15,0.77-13.72c-0.71-0.18-1.39-0.36-2.09-0.54      C366.27,183.47,365.96,188.22,365.64,192.96 M364.1,192.95c0.25,0,0.49,0.01,0.73,0.01c0.28-4.8,0.56-9.63,0.84-14.44      c-0.2-0.05-0.4-0.1-0.61-0.14C364.75,183.22,364.42,188.08,364.1,192.95 M114.39,246.09c4.09,1.88,8.33,3.84,12.65,5.86      c34.4,16.06,62.5,30.19,82.14,40.35c0.36-0.79,0.71-1.57,1.09-2.35c-20.43-9.95-49.15-23.68-84.04-39.39      c-3.82-1.72-7.58-3.42-11.26-5.04C114.77,245.71,114.59,245.91,114.39,246.09 M361.69,192.94c0.15,0,0.3,0,0.45,0      c-0.04-5.1-0.06-10.22-0.09-15.32c-0.13-0.03-0.25-0.06-0.38-0.09C361.67,182.66,361.68,187.81,361.69,192.94 M359.92,192.96      c0.21-0.01,0.41,0,0.61-0.01c0.07-5.21,0.15-10.42,0.24-15.63c-0.19-0.04-0.37-0.08-0.57-0.13      C360.11,182.45,360.01,187.7,359.92,192.96 M354.68,193.14c1.15-0.05,2.31-0.11,3.46-0.14c-0.27-5.49-0.54-10.98-0.81-16.45      c-0.95-0.21-1.9-0.41-2.85-0.61L354.68,193.14z M121.11,239.76c30.04,16.06,60.08,32.12,90.11,48.18      c0.12-0.25,0.25-0.5,0.37-0.75c-29.71-16.23-59.42-32.44-89.14-48.66C122.01,238.93,121.56,239.34,121.11,239.76 M125.65,235.7      c22.07,12.51,51.08,28.96,87.03,49.34c0.02-0.05,0.05-0.09,0.07-0.14c-35.94-20.34-64.95-36.78-87.01-49.27      C125.7,235.66,125.67,235.68,125.65,235.7 M349.24,193.49c0.56-0.05,1.13-0.09,1.69-0.13c-0.24-6.09-0.48-12.18-0.7-18.26      c-0.52-0.1-1.03-0.19-1.55-0.28C348.87,181.03,349.06,187.27,349.24,193.49 M347.2,193.68c0.02,0,0.02,0,0.04,0      c-0.49-6.46-0.99-12.92-1.49-19.38c-0.01,0.01-0.02-0.01-0.03,0C346.21,180.75,346.71,187.21,347.2,193.68 M345.4,193.85      c0.01-0.01,0.03-0.01,0.04,0l-1.6-19.88c-0.01,0.01-0.03,0-0.04-0.01C344.34,180.59,344.87,187.22,345.4,193.85 M134.24,228.53      c20.77,12.62,48.13,29.19,82.09,49.73c0.29-0.51,0.59-1.03,0.89-1.54c-33.87-20.21-61.21-36.52-82.06-48.9      C134.85,228.04,134.54,228.28,134.24,228.53 M337.08,194.92c0.77-0.12,1.53-0.23,2.3-0.35c-0.95-7.23-1.89-14.48-2.83-21.71      c-0.71-0.1-1.42-0.19-2.14-0.28L337.08,194.92z M334.43,195.36c0.1-0.02,0.21-0.04,0.3-0.05c-0.99-7.67-1.99-15.36-3-23.04      c-0.05,0-0.13-0.01-0.18-0.03C332.51,179.94,333.48,187.65,334.43,195.36 M609.52,94.18C609.53,94.19,609.52,94.18,609.52,94.18      l0.05-0.05l-0.01,0L609.52,94.18z M147.26,218.76c19.93,13.61,44.72,30.53,74.38,50.76c0.14-0.23,0.29-0.44,0.44-0.67      c-29.63-20.11-54.41-36.92-74.36-50.43C147.58,218.53,147.42,218.64,147.26,218.76 M241.62,244.43c0.16-0.16,0.33-0.34,0.5-0.51      c-13.62-13.58-27.26-27.15-40.89-40.75C214.7,216.93,228.16,230.69,241.62,244.43 M325.08,197.24c1.91-0.44,3.83-0.84,5.76-1.22      c-1.62-8.12-3.23-16.24-4.86-24.35c-0.77-0.07-1.52-0.15-2.28-0.21c1.92,11.97,3.13,20.42,2.73,20.5      c-0.4,0.08-2.44-8.56-5.13-20.69c-0.49-0.04-0.97-0.08-1.46-0.11C321.44,179.02,323.18,187.7,325.08,197.24 M252.52,234.09      c0-0.01,0.02-0.01,0.03-0.03c-10.23-12.29-20.44-24.57-30.68-36.85C232.09,209.49,242.31,221.8,252.52,234.09 M322.43,197.86      c0.07-0.02,0.13-0.04,0.21-0.05c-2.22-9.35-4.36-18.32-6.4-26.91c-0.07,0-0.12,0-0.19-0.01      C318.07,179.49,320.21,188.49,322.43,197.86 M317.6,199.12c0.49-0.14,0.98-0.27,1.46-0.39c-2.24-9.34-4.48-18.69-6.73-28.03      c-0.81-0.04-1.62-0.07-2.43-0.1C312.47,180.11,315.04,189.62,317.6,199.12 M315,199.87c0.33-0.1,0.64-0.19,0.97-0.28      l-7.62-29.04c-0.12,0-0.28-0.01-0.39,0c-0.28,0-0.58-0.01-0.85-0.02L315,199.87z M159.89,210.4      c21.81,17.91,43.62,35.83,65.41,53.75c0.21-0.29,0.42-0.59,0.63-0.87c-21.85-17.73-43.7-35.44-65.55-53.17      C160.22,210.2,160.06,210.29,159.89,210.4 M162.76,208.64c21.49,17.61,42.98,35.23,64.47,52.84c0.49-0.68,0.99-1.33,1.5-1.99      c-21.13-17.46-42.28-34.92-63.41-52.37C164.46,207.63,163.61,208.14,162.76,208.64 M310.15,201.38c0.31-0.1,0.6-0.19,0.9-0.3      c-2.95-10.23-5.91-20.43-8.86-30.65c-0.53,0-1.05,0-1.58-0.01C303.79,180.75,306.97,191.07,310.15,201.38 M306.88,202.49      c0.29-0.1,0.56-0.19,0.84-0.29c-3.85-12.59-7.13-23.28-9.74-31.76c-0.14,0-0.27,0-0.41,0.01      C301.2,182.64,305.27,196.36,306.88,202.49 M305.16,203.11c0.38-0.14,0.77-0.28,1.14-0.41c-1.73-4.7-5.22-15.03-10.89-32.22      c-0.63,0.02-1.27,0.02-1.9,0.04C297.39,181.39,301.28,192.25,305.16,203.11 M173.2,202.67c5.07,4.57,24.81,21.96,59.24,52.14      c0.17-0.21,0.34-0.42,0.51-0.63c-34.48-29.93-54.36-47.13-59.63-51.58C173.27,202.62,173.25,202.64,173.2,202.67 M301.36,204.54      c0.05-0.02,0.1-0.03,0.15-0.06c-4.12-11.28-8.25-22.53-12.38-33.81c-0.04,0-0.08,0-0.14,0      C293.12,181.96,297.25,193.26,301.36,204.54 M174.65,201.89c19.54,17.31,39.05,34.62,58.59,51.93c0.32-0.39,0.63-0.76,0.95-1.15      c0.08-0.09,0.15-0.19,0.24-0.27l-57.81-51.56C175.97,201.18,175.3,201.53,174.65,201.89 M298.11,205.84      c0.44-0.18,0.9-0.37,1.34-0.54c-4.42-11.49-8.83-23-13.26-34.49c-0.65,0.03-1.3,0.07-1.96,0.12      C288.86,182.56,293.48,194.21,298.11,205.84 M294.72,207.3c0.34-0.14,0.66-0.29,0.99-0.43c-4.89-11.92-9.79-23.82-14.69-35.74      c-0.69,0.05-1.38,0.1-2.07,0.16C284.21,183.29,289.46,195.3,294.72,207.3 M184.95,196.66l51.97,52.87      c0.16-0.17,0.33-0.37,0.5-0.55c-17.39-17.49-34.76-34.98-52.15-52.47C185.16,196.56,185.04,196.61,184.95,196.66 M186.98,195.69      c17.23,17.29,34.48,34.58,51.71,51.88c0.09-0.1,0.17-0.18,0.26-0.27c-17.26-17.24-34.51-34.47-51.76-51.69      C187.11,195.63,187.04,195.67,186.98,195.69 M291.78,208.63c0.02,0,0.02-0.01,0.05-0.02c-6.98-15.09-12.68-27.41-17.09-36.94      c-0.01,0.01-0.02,0-0.03,0C279.1,181.21,284.79,193.52,291.78,208.63 M290.09,209.43c0.07-0.02,0.13-0.07,0.19-0.09      c-5.93-12.49-11.86-24.96-17.79-37.44c-0.04,0-0.08,0.01-0.12,0.01C278.27,184.42,284.18,196.92,290.09,209.43 M193.66,192.66      l48.96,50.74c0.4-0.41,0.8-0.81,1.2-1.21c-16.39-16.65-32.78-33.32-49.17-49.96C194.33,192.39,194,192.53,193.66,192.66       M285.62,211.64c0.79-0.41,1.6-0.81,2.4-1.21c-6.34-12.72-12.67-25.43-19.01-38.15c-0.75,0.09-1.51,0.17-2.26,0.27      C273.04,185.59,279.33,198.62,285.62,211.64 M281.51,213.85c0.4-0.22,0.8-0.43,1.2-0.65c-6.83-13.34-13.68-26.67-20.51-40.01      c-0.3,0.04-0.61,0.1-0.9,0.13C268.03,186.82,274.76,200.33,281.51,213.85 M201.72,189.31c14.85,16.84,29.69,33.67,44.54,50.51      c0.67-0.65,1.34-1.29,2.03-1.91c-15.32-16.28-30.64-32.56-45.96-48.83C202.12,189.15,201.91,189.24,201.72,189.31       M278.28,215.66c0.12-0.06,0.23-0.13,0.35-0.2c-7.49-13.78-14.99-27.56-22.48-41.34c-0.09,0.02-0.18,0.03-0.28,0.04      C263.35,188,270.82,201.83,278.28,215.66 M209.36,186.4c13.67,16.52,27.35,33.04,41.03,49.57c0.19-0.18,0.38-0.34,0.58-0.51      l-41.23-49.18C209.61,186.31,209.48,186.36,209.36,186.4 M273.74,218.4c0.39-0.24,0.77-0.48,1.16-0.71      c-7.77-14.24-15.52-28.51-23.29-42.76c-0.3,0.05-0.59,0.11-0.9,0.17C258.39,189.52,266.07,203.96,273.74,218.4 M272.91,218.92      c0.2-0.13,0.42-0.26,0.62-0.38c-8.42-14.32-16.85-28.65-25.28-42.96c-0.1,0.02-0.2,0.04-0.29,0.06      C256.27,190.06,264.6,204.49,272.91,218.92 M215.65,184.22c12.8,16.18,25.61,32.36,38.41,48.54c0.02-0.01,0.06-0.04,0.09-0.08      c-12.83-16.16-25.63-32.32-38.45-48.49C215.69,184.21,215.67,184.22,215.65,184.22 M270.95,220.18c0.1-0.07,0.19-0.13,0.29-0.18      c-8.59-14.62-17.18-29.24-25.77-43.85c-0.03,0.01-0.06,0.02-0.09,0.03C253.9,190.83,262.43,205.5,270.95,220.18 M269.49,221.14      c0.08-0.05,0.15-0.1,0.23-0.16c-8.97-14.76-17.94-29.52-26.91-44.29c-0.02,0-0.03,0.01-0.06,0.02      C251.67,191.53,260.58,206.33,269.49,221.14 M223.69,181.67c11.43,15.96,22.86,31.92,34.29,47.87c0.25-0.2,0.51-0.41,0.77-0.61      c-11.47-15.82-22.95-31.63-34.43-47.45C224.11,181.55,223.9,181.6,223.69,181.67 M230.25,179.8      c10.29,15.77,20.57,31.55,30.86,47.32c0.23-0.18,0.47-0.35,0.69-0.53l-30.11-47.18c-0.35,0.09-0.69,0.19-1.04,0.28L230.25,179.8      L230.25,179.8z"/>
			</defs>
			<clipPath id="SVGID_00000134955921346966230360000012691918853485311928_">
				<use xlink:href="#SVGID_1_" style="overflow:visible;"/>
			</clipPath>
			
				<linearGradient id="SVGID_00000016065178533284142990000011731135247991590032_" gradientUnits="userSpaceOnUse" x1="159.1485" y1="987.976" x2="160.1485" y2="987.976" gradientTransform="matrix(166.7911 577.5602 577.5602 -166.7911 -596869.4375 72972.5469)">
				<stop offset="0" style="stop-color:#CD5932"/>
				<stop offset="0.3468" style="stop-color:#CD5932"/>
				<stop offset="0.7653" style="stop-color:#851E2C"/>
				<stop offset="1" style="stop-color:#851E2C"/>
			</linearGradient>
			
				<polygon style="clip-path:url(#SVGID_00000134955921346966230360000012691918853485311928_);fill:url(#SVGID_00000016065178533284142990000011731135247991590032_);" points="     644.08,55.55 806.05,616.41 127.45,812.38 -34.52,251.52    "/>
		</g>
	</g>
</g>
<g>
	<g>
		<g>
			<defs>
				<path id="SVGID_00000132808683389923216490000009647885820579837342_" d="M410.71,553.62c0.96,0.05,1.93,0.11,2.89,0.16      l-5.76-28.08c-1.07,0.29-2.14,0.56-3.22,0.83C406.54,535.26,408.59,544.36,410.71,553.62 M405.49,553.26      c0.53,0.04,1.07,0.08,1.59,0.12c-1.87-8.7-3.74-17.41-5.61-26.11c-0.34,0.08-0.68,0.16-1.03,0.23      C402.15,536.08,403.8,544.68,405.49,553.26 M413.17,524.16c3.02,9.95,6.05,19.92,9.07,29.88c0.83,0.02,1.66,0.02,2.49,0.02      c-3.05-10.22-6.09-20.44-9.15-30.66C414.77,523.66,413.97,523.91,413.17,524.16 M397.19,552.49c0.08,0.01,0.17,0.02,0.25,0.03      l-3.19-23.75c-0.11,0.02-0.22,0.04-0.33,0.06L397.19,552.49z M422.85,520.86l12.9,33.03c0.08,0,0.15-0.01,0.23-0.01      c-4.26-11.05-8.53-22.1-12.79-33.16C423.09,520.78,422.97,520.82,422.85,520.86 M392.34,551.92c0.6,0.08,1.19,0.14,1.79,0.22      l-2.67-22.89c-0.51,0.08-1.02,0.17-1.53,0.25C390.68,536.63,391.49,544.17,392.34,551.92 M387.42,551.24      c0.47,0.07,0.93,0.14,1.39,0.21c-0.65-7.38-1.3-14.58-1.94-21.5c-0.41,0.06-0.81,0.11-1.22,0.16L387.42,551.24z M427.42,519.09      c4.61,11.51,9.23,23.03,13.85,34.54c0.93-0.05,1.88-0.11,2.81-0.17c-4.85-11.75-9.69-23.51-14.53-35.26      C428.83,518.5,428.12,518.79,427.42,519.09 M382.28,550.44L382.28,550.44l-1.15-19.8l-0.02,0L382.28,550.44z M377.49,549.6      c0.48,0.09,0.96,0.17,1.45,0.27l-0.81-18.93c-0.4,0.04-0.8,0.08-1.2,0.09C377.11,536.94,377.29,543.17,377.49,549.6       M438.06,514.32c6.24,12.66,12.49,25.33,18.73,37.99c0.13-0.02,0.26-0.02,0.38-0.04c-6.22-12.72-12.45-25.44-18.68-38.16      C438.35,514.17,438.2,514.23,438.06,514.32 M441.18,512.74l19.4,39.1c0.01-0.01,0.03-0.01,0.04,0      c-6.46-13.04-12.91-26.08-19.37-39.13C441.23,512.72,441.21,512.72,441.18,512.74 M443.24,511.65l20.59,39.75      c0.73-0.1,1.44-0.2,2.18-0.32c-7.31-13.29-14.62-26.58-21.93-39.87C443.8,511.36,443.52,511.51,443.24,511.65 M364.63,546.88      c0.52,0.12,1.04,0.25,1.56,0.37l0.43-15.73c-0.61,0.01-1.23,0.01-1.86,0.03C364.71,536.47,364.67,541.62,364.63,546.88       M447.83,509.11c7.82,13.71,15.64,27.42,23.46,41.13c0.22-0.04,0.45-0.08,0.66-0.11c-7.77-13.82-15.55-27.65-23.3-41.48      C448.38,508.8,448.1,508.95,447.83,509.11 M359.19,545.53c0.12,0.03,0.22,0.05,0.33,0.09l0.83-14.11c-0.12,0-0.24,0-0.36,0      L359.19,545.53z M450.57,507.49c8.04,14.04,16.08,28.09,24.13,42.14c0.79-0.14,1.58-0.29,2.38-0.45      c-8.24-14.26-16.47-28.51-24.72-42.76C451.76,506.77,451.17,507.14,450.57,507.49 M453.09,505.95l24.97,43.03      c0.12-0.02,0.23-0.04,0.35-0.07c-8.28-14.42-16.57-28.85-24.84-43.27C453.41,505.74,453.25,505.85,453.09,505.95 M355.24,544.48      c0.67,0.18,1.32,0.36,1.99,0.53c0.36-4.71,0.71-9.24,1.05-13.55c-0.64-0.03-1.26-0.04-1.91-0.08L355.24,544.48z M350.53,543.13      c0.02,0.01,0.07,0.02,0.09,0.02l1.35-12.01c-0.03,0-0.06-0.01-0.09,0L350.53,543.13z M462.88,499.32      c10.5,15.3,21,30.59,31.49,45.89c0.07-0.02,0.12-0.04,0.19-0.05l-31.47-46C463.03,499.22,462.96,499.28,462.88,499.32       M344.47,541.26c0.46,0.14,0.92,0.29,1.37,0.44l0.2-1.29l-0.03,1.35c0.45,0.14,0.9,0.28,1.35,0.42l1.43-11.28      c-0.92-0.08-1.84-0.16-2.75-0.27L344.47,541.26z M463.82,498.65c11.25,15.25,22.66,30.46,34.06,45.63      c0.37-0.1,0.74-0.22,1.11-0.31c-11.16-15.54-22.31-31.06-33.48-46.59C464.95,497.8,464.39,498.22,463.82,498.65 M341.29,540.21      c0.05,0.02,0.09,0.02,0.13,0.05l1.65-9.96c-0.05,0-0.12-0.01-0.17-0.02L341.29,540.21z M338.2,539.14      c0.06,0.03,0.13,0.05,0.19,0.06l1.68-9.31c-0.08-0.01-0.14-0.03-0.22-0.04L338.2,539.14z M469.34,494.37l34.58,48.13      c0.11-0.03,0.23-0.07,0.34-0.1l-34.28-48.56C469.76,494.03,469.55,494.2,469.34,494.37 M332.78,537.18      c0.34,0.13,0.67,0.24,1,0.37l1.72-8.37c-0.36-0.05-0.73-0.12-1.09-0.19C333.87,531.7,333.32,534.43,332.78,537.18       M471.58,492.53l39.51,47.69c0.08-0.03,0.16-0.05,0.25-0.08c-12.87-16.19-25.74-32.39-38.6-48.58      C472.36,491.88,471.97,492.21,471.58,492.53 M473.89,490.57c13.19,16.28,26.38,32.56,39.57,48.85l0,0      c-13.13-16.33-26.27-32.66-39.42-48.99C473.99,490.48,473.95,490.53,473.89,490.57 M477.03,487.79      c14.24,16.46,28.47,32.92,42.7,49.38c0.58-0.22,1.15-0.44,1.73-0.65c-14.4-16.62-28.8-33.24-43.14-49.92      C477.9,486.99,477.46,487.38,477.03,487.79 M325.03,534.15c1.46,0.6,2.93,1.19,4.4,1.76c0.58-2.51,1.16-5.02,1.75-7.5      c-1.48-0.28-2.94-0.59-4.4-0.92L325.03,534.15z M479.98,485.04l43.46,50.71c0.01-0.01,0,0,0.01-0.01l-43.47-50.72      C479.98,485.03,479.98,485.04,479.98,485.04 M320.62,532.28c0.04,0.02,0.07,0.03,0.1,0.05l1.68-5.88      c-0.04-0.01-0.08-0.02-0.13-0.03L320.62,532.28z M483.61,481.47c26.98,26.44,43.91,43.01,50.78,49.72      c0.02,0,0.04-0.02,0.05-0.02c-6.84-6.73-23.73-23.35-50.69-49.83C483.69,481.37,483.65,481.42,483.61,481.47 M485.13,479.91      c17.06,16.81,34.1,33.62,51.15,50.43c0.01-0.01,0.01-0.01,0.01-0.01c-16.99-16.87-34-33.74-50.99-50.61      C485.23,479.79,485.18,479.86,485.13,479.91 M487.8,477.04l51.17,52.05c0.06-0.03,0.11-0.05,0.17-0.08l-51.08-52.24      C487.97,476.86,487.89,476.95,487.8,477.04 M309.84,527.33c0.07,0.03,0.12,0.05,0.18,0.1l1.51-4.12      c-0.07-0.02-0.13-0.05-0.19-0.06L309.84,527.33z M489.93,474.68c9.39,9.05,18.81,18.1,28.2,27.15      c-9.39-9.07-18.78-18.12-28.17-27.18C489.96,474.66,489.94,474.67,489.93,474.68 M492.41,471.82c-0.14,0.16-0.26,0.32-0.41,0.47      c18.82,17.38,37.65,34.76,56.47,52.14c0.01-0.02,0.06-0.03,0.07-0.04c-18.62-17.63-37.25-35.28-55.88-52.9      C492.6,471.59,492.5,471.71,492.41,471.82 M303.16,523.97c0.85,0.45,1.71,0.88,2.57,1.32c0.46-1.17,0.93-2.33,1.37-3.49      c-0.91-0.33-1.8-0.65-2.71-0.99C304.01,521.85,303.59,522.91,303.16,523.97 M494.14,469.74c19.09,17.27,39.43,33.21,58.89,50.1      c-19.1-17.34-38.22-34.7-57.33-52.05C495.2,468.44,494.67,469.08,494.14,469.74 M300.24,522.41c0.03,0.02,0.03,0.02,0.05,0.02      l1.19-2.77c-0.02-0.01-0.05-0.02-0.06-0.03L300.24,522.41z M497.61,465.36l62.52,52.69c0.31-0.19,0.64-0.37,0.95-0.55      c-22.3-19.14-44.94-38.54-62.47-53.44C498.28,464.49,497.94,464.93,497.61,465.36 M293.8,518.83c0.87,0.5,1.76,1,2.63,1.49      l1.06-2.28c-0.92-0.39-1.83-0.79-2.73-1.2L293.8,518.83z M289.81,516.49c0.43,0.26,0.87,0.51,1.29,0.77      c0.29-0.57,0.59-1.14,0.86-1.71c-0.45-0.21-0.89-0.43-1.34-0.64L289.81,516.49z M504.99,454.92      c24.19,15.42,47.5,32.32,71.7,47.7c0.84-1.31,1.69-2.6,2.53-3.9c-22.47-14.67-47.93-31.27-72.15-47.06      C506.38,452.75,505.69,453.84,504.99,454.92 M278.8,509.53c2.27,1.51,4.55,2.98,6.85,4.42c0.22-0.41,0.45-0.79,0.67-1.2      c-2.4-1.25-4.77-2.55-7.12-3.91L278.8,509.53z M509.33,447.9c49.29,28.78,74.01,43.02,74.18,42.73      c0.17-0.29-24.22-15.11-73.17-44.48C510,446.75,509.66,447.32,509.33,447.9 M277.21,508.47c0.24,0.16,0.47,0.32,0.71,0.48      l0.39-0.62c-0.24-0.14-0.49-0.29-0.74-0.44L277.21,508.47z M274.6,506.68L274.6,506.68l0.28-0.43l-0.01,0L274.6,506.68z       M514.58,438.19c25.43,12.67,50.85,25.36,76.3,38.02c-25.39-12.76-50.78-25.52-76.17-38.28      C514.67,438.02,514.61,438.11,514.58,438.19 M515.52,436.29c30.87,15.82,62.67,29.87,94.09,44.65c0.15-0.15,0.29-0.28,0.45-0.44      c-31.08-15.65-62.28-31.06-93.17-47.09C516.43,434.37,515.97,435.33,515.52,436.29 M266.31,500.68      c0.95,0.72,1.91,1.42,2.86,2.11l0.14-0.18c-0.98-0.67-1.96-1.33-2.92-2.03C266.34,500.62,266.32,500.65,266.31,500.68       M518.81,429.03c32.15,15.44,64.31,30.88,96.46,46.33l0-0.01c-32.1-15.58-64.19-31.17-96.29-46.75      C518.94,428.75,518.87,428.89,518.81,429.03 M263.59,498.6l0.03-0.02c-0.44-0.33-0.88-0.65-1.31-0.97      C262.73,497.95,263.16,498.28,263.59,498.6 M519.77,426.73c41.83,18.27,75.23,32.86,100.21,43.76c0.06-0.06,0.1-0.1,0.15-0.17      c-24.96-10.94-58.38-25.59-100.23-43.92C519.86,426.52,519.81,426.62,519.77,426.73 M521.05,423.49      c33.78,15.09,67.29,31.25,101.71,44c0.12-0.12,0.22-0.25,0.34-0.37c-33.82-15.04-67.95-29.39-101.59-44.81      C521.34,422.7,521.2,423.1,521.05,423.49 M523.64,416.26c19.79,7.37,39.57,14.72,59.37,22.08      c-19.77-7.44-39.52-14.89-59.29-22.33C523.69,416.11,523.66,416.19,523.64,416.26 M525.13,411.59      c57.46,19.41,95,32.06,112.64,37.99c0.03-0.04,0.06-0.08,0.08-0.11c-17.58-6.01-55.12-18.78-112.6-38.29      C525.2,411.31,525.15,411.45,525.13,411.59 M527.23,403.89c51.65,14.68,91.35,25.93,119.15,33.76c0.21-0.31,0.41-0.59,0.61-0.9      c-27.74-8.13-67.52-19.7-119.32-34.72C527.53,402.64,527.38,403.27,527.23,403.89 M527.81,401.49l120.84,32.78      c0.31-0.47,0.63-0.96,0.93-1.44c-40.42-11.2-80.84-22.42-121.27-33.62C528.16,399.96,527.99,400.74,527.81,401.49       M528.99,396.02l127.54,25.56c0.02-0.05,0.07-0.1,0.08-0.14l-127.38-26.67C529.15,395.18,529.07,395.6,528.99,396.02       M530.18,389.28l130.12,25.59c0.57-1.06,1.13-2.1,1.7-3.16c-43.88-7.88-87.76-15.76-131.62-23.64      C530.31,388.47,530.25,388.89,530.18,389.28 M531.11,382.49c84.11,12.01,126.17,17.99,126.18,17.94      c0-0.05-42.04-6.14-126.15-18.25C531.13,382.27,531.12,382.38,531.11,382.49 M531.67,376.74c46.65,4.9,93.29,9.82,139.92,14.72      c0.04-0.09,0.08-0.2,0.12-0.28c-46.64-5.39-93.27-10.78-139.92-16.17C531.76,375.6,531.71,376.16,531.67,376.74 M532.03,370.85      l143.46,10.86c0.01-0.04,0.02-0.07,0.04-0.1l-143.48-11.09C532.05,370.63,532.05,370.74,532.03,370.85 M532.16,367.58      L532.16,367.58 M532.16,367.58l126.21,7.82L532.16,367.58L532.16,367.58L532.16,367.58 M532.22,364.05l31.1,0.75l-31.1-1.02      C532.22,363.85,532.21,363.95,532.22,364.05 M532.11,356.79l131.57-0.94l-131.58,0.9C532.09,356.77,532.1,356.78,532.11,356.79       M531.85,351.81c44.62-1.72,128.16-6.41,128.16-6.63c-0.01-0.16-48.64,2.13-128.2,6.01      C531.81,351.4,531.83,351.61,531.85,351.81 M531.63,349.07c12.16-1.2,29.27-2.87,52.95-5.28c26.4-2.68,52.8-5.28,79.22-7.81      l-89.6,5.08l115.17-12.08c0.05-0.32,0.09-0.62,0.14-0.92c-47.05,3.63-112.93,9.2-158.61,13.93      C531.19,344.36,531.44,346.71,531.63,349.07 M530.53,339.28c50.24-5.94,102.14-13.23,151.35-19.64      c-50.53,6.07-101.05,12.11-151.58,18.18C530.39,338.29,530.46,338.79,530.53,339.28 M529.93,335.38      c92.91-13.9,92.93-13.94-0.02-0.1C529.92,335.32,529.92,335.35,529.93,335.38 M659.36,298.78c-3.66,0.7-7.31,1.41-10.94,2.15      C652.06,300.21,655.7,299.49,659.36,298.78 M529.54,333.14c52.11-7.52,103.72-18.55,155.69-26.93l-0.11-1.25      c-51.98,8.8-103.94,17.6-155.92,26.39C529.32,331.96,529.43,332.56,529.54,333.14 M529.14,330.95      c163.55-29.91,163.53-30.24-0.19-0.97C529,330.31,529.07,330.63,529.14,330.95 M528.14,326.17      c40.34-6.75,80.14-17.15,120.28-25.26c-40.21,7.88-80.43,15.78-120.63,23.66C527.9,325.11,528.02,325.65,528.14,326.17       M526.79,320.58c52.09-12.96,104.1-26.16,156.17-39.15c-52.15,12.71-104.29,25.42-156.43,38.13      C526.6,319.9,526.7,320.23,526.79,320.58 M525.83,317.04l125.41-33.5l-125.45,33.36C525.79,316.94,525.81,316.98,525.83,317.04       M524.17,311.52c0.02,0.05,0.03,0.11,0.05,0.15l126.66-38.21L524.17,311.52z M523.22,308.67c0.05,0.16,0.11,0.33,0.17,0.49      c50.54-16.23,101.08-32.45,151.64-48.68C624.42,276.55,573.82,292.61,523.22,308.67 M521.23,303.13      c0.09,0.23,0.17,0.47,0.26,0.71c9.73-3.55,20.73-7.55,32.76-11.91c60.46-21.93,102.95-37.01,102.93-37.06c0,0,0,0-0.01,0.01      C656.72,255,628.77,264.9,521.23,303.13 M520.14,300.35c0.04,0.09,0.07,0.2,0.12,0.28c55.88-20.73,111.78-41.47,167.68-62.2      c-0.06-0.28-0.11-0.56-0.16-0.84C631.9,258.51,576.02,279.42,520.14,300.35 M517.66,294.45c0.13,0.29,0.26,0.58,0.38,0.87      c48.81-20.35,97.61-40.69,146.43-61.04C615.52,254.34,566.59,274.4,517.66,294.45 M506.66,273.77c0.02,0.01,0.02,0.04,0.03,0.04      l6.96-4.36L506.66,273.77z M515.42,289.62c0.3,0.62,0.59,1.24,0.89,1.86c48.21-20.74,96.42-41.48,144.63-62.22      c-0.25-0.69-0.5-1.38-0.75-2.07L515.42,289.62z M512.82,284.46c0.45,0.84,0.88,1.7,1.31,2.55l131.45-65.85      C609.99,237.52,553.89,264.12,512.82,284.46 M508.01,275.98c0.06,0.1,0.12,0.19,0.17,0.28l55.82-33.6L508.01,275.98z       M499.65,263.43c0.34,0.46,0.69,0.93,1.02,1.4c10.81-7.78,21.62-15.57,32.43-23.35C518.41,251.24,507.49,258.39,499.65,263.43       M509.89,279.15c0.75,1.31,1.47,2.61,2.17,3.93c47.91-24.12,95.84-48.25,143.75-72.37l-100.82,47.42      c31.91-18.55,63.82-37.11,95.72-55.66C603.77,228.04,556.83,253.59,509.89,279.15 M0,360.24c12.49,0.34,27.37,0.75,44.66,1.21      c0.05-0.16,0.09-0.34,0.14-0.5c-17.34-0.43-32.27-0.78-44.79-1.07C0,360,0,360.11,0,360.24 M0.24,349.46      c12.28,0.55,28.12,1.26,47.54,2.11c0.1-0.29,0.2-0.58,0.3-0.88c-19.55-0.75-35.48-1.34-47.81-1.8      C0.25,349.09,0.25,349.26,0.24,349.46 M500.92,265.18c0.6,0.85,1.19,1.69,1.77,2.54c53.47-33.91,106.95-67.83,160.42-101.74      c-0.25-0.47-0.48-0.95-0.74-1.42C608.57,198.09,554.74,231.65,500.92,265.18 M496.54,259.32c0.42,0.54,0.84,1.07,1.24,1.62      c35.82-27.24,123.29-89.85,123.09-90.13c0,0-0.01,0-0.02-0.01C619.7,171.12,569.26,207.13,496.54,259.32 M54.17,334.59      c0.01-0.04,0.03-0.07,0.05-0.09c-35.14-2.55-52.75-3.82-52.79-3.81C1.42,330.69,19,332,54.17,334.59 M484.85,245.92      c1.16,1.19,2.29,2.41,3.42,3.62c34.31-30.98,68.62-61.95,102.93-92.93C555.75,186.38,520.31,216.16,484.85,245.92 M3.22,314.41      c10.78,1.49,29.61,4.05,56.51,7.72c0.05-0.11,0.11-0.22,0.16-0.32c-26.97-3.6-45.85-6.1-56.65-7.52      C3.24,314.31,3.23,314.36,3.22,314.41 M490.25,251.76c1.03,1.17,2.02,2.34,3.02,3.51c84.08-62.26,125.86-93.76,125.34-94.49      c-0.45-0.62-31.4,20.95-92.86,64.7c31.04-25.91,62.09-51.83,93.13-77.75C576.01,182.42,533.14,217.09,490.25,251.76       M448.66,215.81c0.01,0,0.01,0,0.03,0.02c6.49-11.91,12.99-23.84,19.49-35.75C461.67,191.99,455.17,203.9,448.66,215.81       M480.44,241.52c0.4,0.39,0.8,0.76,1.19,1.16c63.27-62.9,94.79-94.45,94.59-94.64c0,0,0,0-0.01,0.01      C575.7,148.18,543.75,179.35,480.44,241.52 M5.89,297.51c20.37,3.51,40.73,7.02,61.1,10.53c0.35-0.64,0.7-1.27,1.06-1.9      c-20.61-3.5-41.21-7.01-61.82-10.49C6.13,296.27,6.01,296.88,5.89,297.51 M82.41,283.48c0.09-0.13,0.17-0.23,0.25-0.36      c-6.63-1.89-13.31-3.81-19.79-5.68C69.07,279.31,75.61,281.34,82.41,283.48 M477.66,238.92c0.51,0.47,1,0.93,1.51,1.4      c36.92-40.3,73.86-80.6,110.79-120.9C537.57,175.76,500.14,215.58,477.66,238.92 M13.89,263.17      c9.02,2.65,28.02,8.22,48.99,14.26c-22.61-6.89-40.4-11.95-48.97-14.34C13.9,263.11,13.89,263.15,13.89,263.17 M364.45,178.39      c0.04,0.01,0.09,0.01,0.13,0.03c0.08-4.11,0.18-8.69,0.29-13.62C364.73,169.23,364.59,173.75,364.45,178.39 M463.06,226.23      c0.2,0.15,0.39,0.3,0.58,0.46c0.67,0.67,1.35,1.34,2.05,1.98c26.95-33.37,53.91-66.75,80.85-100.12      c-24.7,29.64-49.4,59.27-74.1,88.9c25.48-34.19,50.95-68.38,76.41-102.57C520.26,151.99,491.65,189.12,463.06,226.23       M425.3,201.76c0.67,0.36,1.33,0.72,2,1.08c8.52-21.21,17.03-42.41,25.53-63.61C443.66,160.07,434.48,180.91,425.3,201.76       M472.84,234.66c0.56,0.47,1.12,0.95,1.66,1.43c23.79-27.89,66.78-76.93,128.93-147.13c-0.43-0.38-0.86-0.76-1.29-1.14      C559.05,136.76,515.94,185.72,472.84,234.66 M316.13,171.03c0.02,0.01,0.05,0,0.07,0l-1.69-5.8L316.13,171.03z M63,229.04      c-0.08,0.18,9.32,4.38,47.62,20.71c0.37-0.37,0.73-0.75,1.1-1.1C86.63,238.4,63.48,228.91,63,229.04L63,229.04 M24.04,232.73      c25.11,9.71,50.24,19.41,75.35,29.12c0.03-0.04,0.08-0.09,0.12-0.13c-25.15-9.67-50.3-19.35-75.45-29.03      C24.05,232.7,24.05,232.72,24.04,232.73 M470.22,232.49c0.09,0.08,0.19,0.15,0.28,0.23L591.42,78.89c-0.01,0-0.01,0-0.02-0.01      L470.22,232.49z M453.91,219.44c0.67,0.47,1.32,0.94,1.99,1.42c30.13-44.46,60.27-88.92,90.39-133.38      C515.51,131.48,484.71,175.47,453.91,219.44 M451.58,217.81c0.52,0.37,1.07,0.74,1.6,1.11      c50.14-84.27,75.05-126.48,74.77-126.66l0,0C527.5,92.4,502.04,134.24,451.58,217.81 M439.97,210.2      c0.23,0.14,0.47,0.29,0.71,0.44c19.23-39.02,38.48-78.04,57.72-117.07C478.91,132.45,459.44,171.33,439.97,210.2 M33.69,209.97      c16.25,7.15,50.4,22.12,81,35.73c0.09-0.09,0.18-0.17,0.28-0.28c-39.72-17.38-67.58-29.56-81.25-35.52      C33.7,209.92,33.7,209.94,33.69,209.97 M381.33,183.18c0.6,0.19,1.2,0.38,1.81,0.59c3.44-23.85,6.87-47.7,10.3-71.56      c-0.64-0.14-1.29-0.26-1.92-0.4C388.14,135.6,384.73,159.39,381.33,183.18 M77.63,196.49c-0.09,0.17,18.76,10.84,56.53,32.03      c0.33-0.25,0.65-0.52,0.97-0.77C97.07,206.83,77.91,196.42,77.63,196.49L77.63,196.49 M445.64,213.81      c0.19,0.12,0.39,0.26,0.59,0.38c48.71-93.82,73.01-140.76,72.9-140.81C518.97,73.42,494.47,120.25,445.64,213.81 M36.35,204.37      c27.4,12.56,54.79,25.11,82.19,37.66c0.36-0.33,0.71-0.66,1.06-0.98c-27.61-12.52-55.2-25.04-82.81-37.58      C36.63,203.78,36.49,204.08,36.35,204.37 M142.67,222.01c0.07-0.05,0.13-0.1,0.19-0.14c-18.31-11.67-36.63-23.35-54.94-35.01      C106.18,198.57,124.44,210.28,142.67,222.01 M169.8,204.54c0.13-0.08,0.29-0.16,0.43-0.24c-12.97-10-25.95-20-38.94-29.98      L169.8,204.54z M41.43,194.31c27.82,13.99,55.66,27.97,83.48,41.95c0.32-0.29,0.64-0.55,0.95-0.84      c-28.56-13.95-56.99-27.77-84.42-41.16C41.43,194.29,41.43,194.29,41.43,194.31 M160.09,210.25c0.05-0.04,0.1-0.07,0.16-0.09      c-19.03-13.39-38.06-26.76-57.1-40.15C122.14,183.42,141.12,196.83,160.09,210.25 M413.66,195.91c1.11,0.53,2.23,1.07,3.34,1.61      l44.57-127.81C445.6,111.77,429.63,153.83,413.66,195.91 M421.98,200.02c0.01,0,0.03,0.02,0.04,0.02      c33.34-89.13,50-133.67,49.99-133.67C472.01,66.36,455.32,110.93,421.98,200.02 M406.16,192.51c0.47,0.21,0.94,0.42,1.41,0.63      l30.92-126.22C427.7,108.78,416.94,150.65,406.16,192.51 M218.91,183.2c0.46-0.14,0.93-0.29,1.39-0.44      c-15.78-17.78-31.47-35.04-47.04-51.78C188.48,148.39,203.7,165.8,218.91,183.2 M115.96,144.51      c21.58,18.08,43.16,36.16,64.74,54.25c0.53-0.27,1.08-0.54,1.61-0.8c-22.06-18.26-44.02-36.26-65.87-54      C116.27,144.15,116.11,144.33,115.96,144.51 M372.36,74.4c-0.37,0.1-2,31.3-3.7,62.53c-0.82,15.16-1.66,30.32-2.37,41.93      c0.82,0.21,1.67,0.43,2.5,0.65C371.69,109.45,372.88,74.41,372.36,74.4L372.36,74.4z M224.65,181.44      c0.07-0.02,0.15-0.04,0.21-0.07c-15.77-18.93-31.54-37.86-47.3-56.79C193.25,143.53,208.96,162.49,224.65,181.44 M458.86,150.47      c12.34-31.19,24.68-62.39,37.01-93.57L430.9,204.84c1.98,1.12,3.96,2.28,5.92,3.44c26.76-58.38,53.52-116.73,80.28-175.1      c-0.39-0.19-0.78-0.36-1.16-0.55C496.92,71.92,477.88,111.19,458.86,150.47 M66.72,153.06c29.59,20.04,59.2,40.07,88.79,60.1      c0.11-0.07,0.23-0.15,0.35-0.23c-29.7-19.97-59.41-39.95-89.1-59.92C66.74,153.04,66.74,153.05,66.72,153.06 M148.09,127.97      c18.9,20.02,37.73,40.11,56.52,60.25c1.27-0.49,2.52-0.95,3.8-1.42c-19.9-20.52-39.68-40.47-59.28-59.85      C148.78,127.3,148.43,127.63,148.09,127.97 M73.45,143.87c29.9,21.51,59.8,43.01,89.71,64.52c0.08-0.04,0.15-0.09,0.23-0.13      c-29.97-21.47-59.94-42.94-89.9-64.42C73.46,143.86,73.45,143.87,73.45,143.87 M376.84,181.78c0.33,0.1,0.65,0.2,0.97,0.29      c3.19-42.24,6.38-84.47,9.56-126.71C383.17,96.33,379.57,139.27,376.84,181.78 M264.08,85.15c9.84,28.5,19.7,57,29.54,85.5      c0.66-0.01,1.3-0.03,1.97-0.04c-10.21-28.59-20.43-57.18-30.65-85.76C264.66,84.94,264.36,85.05,264.08,85.15 M422.84,41.38      c-0.39,0.1-9.13,49.15-26.27,147.2c1.77,0.68,3.54,1.4,5.3,2.12c10.66-48.64,21.31-97.28,31.97-145.92      c-11.36,45.95-22.72,91.89-34.07,137.84C415.49,88.51,423.2,41.43,422.84,41.38L422.84,41.38z M301.42,170.56      c0.47,0,0.94,0,1.43,0.01c-3.17-10.09-7.44-24.22-11.65-38.36c-7.92-26.56-15.65-53.18-15.66-53.19      C279.68,95.89,290.36,135.49,301.42,170.56 M385.38,184.51c0.06,0.02,0.11,0.04,0.17,0.06c15.81-96.75,23.7-145.17,23.67-145.17      C409.2,39.39,401.24,87.75,385.38,184.51 M219.91,88.87c-0.32,0.17,14.49,28.21,44.4,84.11c0.76-0.11,1.53-0.21,2.3-0.29      C235.83,116.72,220.27,88.77,219.91,88.87L219.91,88.87z M297.78,170.57c0.63-0.01,1.25,0,1.89-0.01      c-8.91-30.41-22.05-64.88-32.02-95.18C277.49,106.24,286.7,139.14,297.78,170.57 M331.24,172.35c0.95,0.11,1.9,0.23,2.85,0.35      c-5.92-37.11-11.85-74.22-17.77-111.34c-0.62,0.14-1.25,0.29-1.88,0.43C320.04,98.65,325.65,135.51,331.24,172.35 M304.8,170.59      c1.2,0.02,2.39,0.05,3.59,0.08c-10.06-33.72-20.12-67.43-30.18-101.15C291.77,119.96,300.5,153.21,304.8,170.59 M202.79,88.21      c-0.27,0.17,17.02,28.93,51.88,86.25c0.69-0.11,1.39-0.25,2.09-0.35C221.11,116.76,203.12,88.12,202.79,88.21L202.79,88.21z       M410.68,194.52c0.96,0.43,1.9,0.87,2.84,1.32c18.59-60.31,37.17-120.63,55.76-180.93c-0.57-0.18-1.15-0.35-1.73-0.52      C448.59,74.43,429.63,134.49,410.68,194.52 M267.66,75.36c-0.89-2.81-1.79-5.6-2.69-8.37      C265.83,69.74,266.73,72.54,267.66,75.36 M100.96,111.56c29.92,27.49,59.84,54.96,89.77,82.45c0.63-0.29,1.26-0.57,1.89-0.85      c-30.23-27.54-60.47-55.07-90.7-82.6C101.59,110.88,101.27,111.22,100.96,111.56 M351.82,175.59c0.8,0.15,1.59,0.31,2.38,0.47      c-2.95-45.19-5.9-90.38-8.86-135.56C347.5,85.53,349.67,130.55,351.82,175.59 M364.86,164.79      c2.61-84.66,4.06-131.68,4.03-131.68C368.85,33.1,366.02,116.01,364.86,164.79 M109.62,102.77l88.08,88.21      c0.31-0.12,0.61-0.25,0.91-0.38c-30.2-29.42-60.24-59.47-88.96-87.86C109.65,102.76,109.63,102.77,109.62,102.77 M358.65,177.01      c0.44,0.1,0.87,0.2,1.32,0.3c-2.18-95.56-3.37-143.33-3.59-143.31C356.15,34.05,356.91,81.74,358.65,177.01 M292.94,43.16      c8.95,42.71,17.9,85.41,26.85,128.11c1.14,0.09,2.27,0.18,3.41,0.27L295.33,42.5L292.94,43.16L292.94,43.16z M286.06,170.93      c0.27-0.01,0.55-0.04,0.83-0.05c-16.48-37.65-32.96-75.28-49.45-112.93C253.66,95.61,269.86,133.27,286.06,170.93 M145.89,71.68      c28.36,35.99,56.73,72,85.09,107.99c0.18-0.06,0.38-0.1,0.56-0.15c-28.52-35.96-57.05-71.93-85.57-107.89      C145.93,71.65,145.92,71.66,145.89,71.68 M372.31,180.47c0.88,0.25,1.75,0.49,2.63,0.75c4.7-60.34,9.42-120.67,14.13-181.01      c-1.01-0.07-2.02-0.13-3.02-0.2C381.46,60.16,376.89,120.32,372.31,180.47 M170.36,54.88c8.11,13.74,16.37,27.55,24.75,41.43      c6.95,11.52,13.91,22.94,20.88,34.25c-1.27,0.83-3.08,2.05-4.35,2.88c9.93,14.56,19.86,29.11,29.78,43.66      c1.95-0.45,3.91-0.87,5.88-1.26c-5.8-9.12-11.6-18.3-17.39-27.54c-19.96-31.81-39.26-63.3-57.94-94.42      C171.43,54.2,170.89,54.53,170.36,54.88 M312.42,170.83c0.71,0.04,1.44,0.07,2.17,0.11c-12.55-50.61-23.01-93.61-37.17-150.1      l-1.85,0.46C289.62,77.6,300,120.48,312.42,170.83 M211.98,32.4c22.49,46.31,45,92.64,67.49,138.96      c0.54-0.04,1.09-0.08,1.63-0.12c-22.94-46.32-45.9-92.64-68.86-138.96C212.16,32.32,212.08,32.36,211.98,32.4 M336.65,173.05      c3.19,0.44,6.4,0.93,9.58,1.49c0-0.02-0.01-0.05-0.01-0.08c-5.74-48.52-9.64-95.58-11.98-141.02c-1.13,0.24-2.27,0.5-3.41,0.75      c3.68,40.16,7.36,80.31,11.05,120.46c-1.37-0.06-2.76-0.11-4.12-0.15c-3.77-36.82-13.13-110.99-17.61-152.53      c-0.24,0.03-0.48,0.06-0.73,0.09C324,49.17,332.57,130.15,336.65,173.05"/>
			</defs>
			<clipPath id="SVGID_00000152946964493293987170000009012310032540595603_">
				<use xlink:href="#SVGID_00000132808683389923216490000009647885820579837342_" style="overflow:visible;"/>
			</clipPath>
			
				<linearGradient id="SVGID_00000136399178017768670580000010085276831067530881_" gradientUnits="userSpaceOnUse" x1="159.1745" y1="988.0133" x2="160.1745" y2="988.0133" gradientTransform="matrix(151.893 578.887 578.887 -151.893 -595851.375 57961.543)">
				<stop offset="0" style="stop-color:#E0A4B6"/>
				<stop offset="0.0475" style="stop-color:#E0A4B6"/>
				<stop offset="0.5222" style="stop-color:#706CA4"/>
				<stop offset="0.7653" style="stop-color:#3C529B"/>
				<stop offset="1" style="stop-color:#3C529B"/>
			</linearGradient>
			
				<polygon style="clip-path:url(#SVGID_00000152946964493293987170000009012310032540595603_);fill:url(#SVGID_00000136399178017768670580000010085276831067530881_);" points="     607.43,-75.74 753.38,480.51 76.2,658.2 -69.75,101.95    "/>
		</g>
	</g>
</g>
<g>
	<g>
		<g>
			<defs>
				<path id="SVGID_00000107579039028722040640000009822603141288905377_" d="M497.07,544.44c5.75,7.51,11.51,15.02,17.25,22.53      c2.21-1.66,4.42-3.33,6.64-4.99l-15.12-20.1C502.93,542.77,500.01,543.63,497.07,544.44 M513.5,539.36      c0.07,0.08,0.15,0.17,0.22,0.25c4.85,5.54,9.71,10.96,14.54,16.26c1.48-1.28,2.97-2.58,4.45-3.86      c-4.48-4.91-8.95-9.82-13.43-14.73C517.37,538,515.44,538.69,513.5,539.36 M456.63,571.51c1.9-0.88,3.83-1.76,5.73-2.63      c-2.71-5.46-5.41-10.92-8.12-16.38c-2.1,0.21-4.19,0.42-6.3,0.59C450.79,559.35,453.7,565.49,456.63,571.51 M437.7,576.83      c2.62-0.9,5.25-1.79,7.88-2.7c-2.41-6.83-4.83-13.64-7.24-20.47c-2.79,0.12-5.58,0.2-8.37,0.24      C432.55,561.55,435.12,569.19,437.7,576.83 M430.58,601.33c1.6-0.44,3.2-0.89,4.79-1.32c-4.42-15.36-8.86-30.73-13.28-46.11      c-1.77-0.03-3.53-0.07-5.31-0.14C421.4,569.62,425.99,585.48,430.58,601.33 M426.29,608.66c0.87-0.27,1.72-0.55,2.59-0.83      c-4.83-18.05-9.66-36.11-14.48-54.15c-1.05-0.05-2.11-0.1-3.17-0.16C416.25,571.89,421.27,590.26,426.29,608.66 M395.88,568.95      c3.17-0.34,6.35-0.67,9.53-1.01c-0.72-4.15-1.59-9.23-2.62-15.04c-3.09-0.27-6.19-0.61-9.27-0.99      C394.58,558.9,395.36,564.76,395.88,568.95 M381.01,562.37c1.56,0.06,3.13,0.12,4.69,0.17c-0.32-4.23-0.63-8.18-0.9-11.86      c-1.58-0.25-3.17-0.51-4.74-0.79C380.36,554.06,380.69,558.22,381.01,562.37 M376.68,615.35c1.67-0.09,3.34-0.16,5-0.25      c-1.59-21.93-3.2-43.85-4.8-65.79c-1.32-0.24-2.64-0.51-3.95-0.78C374.18,570.81,375.44,593.08,376.68,615.35 M359.66,570.17      c0.97,0.1,1.94,0.19,2.89,0.29c0.07-8.07,0.14-16.15,0.2-24.21c-0.73-0.18-1.46-0.36-2.19-0.55      C360.27,553.85,359.97,562.01,359.66,570.17 M343.44,601.91c1.25,0.18,2.47,0.36,3.71,0.55c1.59-19.7,3.17-39.41,4.75-59.11      c-1.2-0.34-2.4-0.71-3.61-1.07C346.69,562.14,345.05,582.02,343.44,601.91 M333.45,560.71c1.08,0.22,2.17,0.42,3.26,0.64      l3.31-21.78c-1.11-0.37-2.21-0.76-3.3-1.16C335.62,545.85,334.54,553.28,333.45,560.71 M322.81,567      c1.26,0.31,2.52,0.63,3.79,0.93c1.79-10.42,3.56-20.85,5.35-31.27c-1.08-0.41-2.15-0.83-3.22-1.25      C326.75,545.94,324.78,556.47,322.81,567 M299.13,583.09c1.52,0.53,3.04,1.06,4.56,1.6c5.76-17.5,11.5-35,17.25-52.49      c-1.62-0.71-3.25-1.41-4.85-2.15C310.44,547.73,304.8,565.42,299.13,583.09 M283.08,554.44c1.53,0.64,3.05,1.28,4.58,1.91      c2.97-7.33,5.95-14.66,8.92-21.99c2.31,0.93,4.61,1.86,6.91,2.8c-6.58,17.92-13.14,35.84-19.71,53.76      c1.42,0.61,2.85,1.22,4.26,1.83c6.63-19.33,13.26-38.67,19.89-58c1.13,0.49,2.25,0.99,3.38,1.47c0.91-2.36,1.84-4.73,2.76-7.1      c-5.55-2.58-11.01-5.37-16.41-8.36C292.8,531.97,287.93,543.2,283.08,554.44 M276.22,528.07c1.34,0.58,2.67,1.14,4,1.72      c-3.18,6.36-6.36,12.71-9.54,19.07c0.78,0.47,1.57,0.93,2.35,1.41c2.36-4.8,4.71-9.61,7.09-14.4c1.48,0.74,2.94,1.48,4.41,2.22      c-5.16,11.05-10.34,22.09-15.5,33.14c0.68,0.34,1.34,0.66,2.02,1c8.3-17.47,16.62-34.93,24.91-52.4c-4-2.26-7.96-4.61-11.85-7.1      C281.48,517.82,278.86,522.95,276.22,528.07 M269,519.6c1.79,0.98,3.58,1.95,5.36,2.93l6.6-11.85      c-1.63-1.06-3.24-2.15-4.86-3.24C273.74,511.49,271.38,515.53,269,519.6 M249.63,536.85c1.23,0.84,2.46,1.68,3.69,2.51      c7.03-11.04,14.05-22.08,21.08-33.12c-1.14-0.8-2.27-1.59-3.41-2.42C263.88,514.84,256.76,525.84,249.63,536.85 M217.44,532.18      c1.52,1.23,3.04,2.44,4.56,3.67l18.79-22.66c2.19,1.46,4.37,2.92,6.55,4.39c-8.81,12.03-17.6,24.05-26.42,36.07      c0.94,0.71,1.88,1.41,2.82,2.11c13.71-18.82,27.43-37.64,41.14-56.46c-0.64-0.5-1.29-0.99-1.94-1.49      c-1.67-1.68-3.44-3.28-5.33-4.8c-1.17-0.95-2.35-1.92-3.52-2.89c-0.29-0.25-0.59-0.5-0.88-0.76      C241.31,503.64,229.37,517.91,217.44,532.18 M231.34,506.53c0.41,0.35,0.83,0.7,1.24,1.04c6.03-6.81,12.07-13.61,18.1-20.43      c-0.33-0.28-0.64-0.58-0.96-0.86C243.61,493.03,237.48,499.77,231.34,506.53 M182.6,540.87c2.09,2.17,4.17,4.32,6.27,6.47      c20.03-20.59,40.05-41.19,60.09-61.77c-1.78-1.63-3.5-3.28-5.18-4.95C223.36,500.69,202.98,520.77,182.6,540.87 M167.25,505.73      l3.11,4.26c4.15-3.18,8.31-6.36,12.46-9.55c1.06,1.26,2.13,2.52,3.2,3.79c12.01-9.56,24.01-19.11,36.03-28.67      c1.04,1.18,2.08,2.37,3.13,3.55c-14.83,12.47-29.65,24.95-44.47,37.41c1.12,1.28,2.24,2.57,3.35,3.85      c18.04-15.22,36.07-30.43,54.1-45.65c-3.73-4.09-7.21-8.34-10.47-12.69L167.25,505.73z M142.31,488.48      c0.93,1.65,1.88,3.3,2.81,4.95c24.7-14.62,49.4-29.24,74.11-43.86c-0.61-0.98-1.19-1.97-1.77-2.96      C197.77,457.7,172.73,471.66,142.31,488.48 M147.35,458.66c0.69,1.62,1.39,3.22,2.07,4.82c16.7-7.81,33.4-15.64,50.09-23.44      c0.41,0.96,0.81,1.93,1.21,2.88c-4.35,2.25-8.71,4.48-13.05,6.73c0.84,1.52,1.69,3.04,2.55,4.57      c8.9-4.54,17.07-8.71,24.51-12.47c-1.9-3.49-3.66-7.05-5.3-10.66C188.72,440.28,168.04,449.46,147.35,458.66 M169.01,436.7      l1.92,5.11l37.08-13.91c-0.73-1.69-1.42-3.39-2.09-5.11L169.01,436.7z M177.85,416.86c-5.03,1.38-10.07,2.77-15.11,4.15      c0.5,1.76,0.98,3.52,1.48,5.28c9.1-2.4,18.22-4.79,27.33-7.19c0.41,1.25,0.82,2.49,1.23,3.74      c-18.27,5.89-36.56,11.79-54.84,17.67l1.2,4.41c22.17-7.63,44.34-15.27,66.51-22.9c-2.16-5.61-4.01-11.33-5.54-17.1      c-7.92,2.07-15.83,4.13-23.74,6.2L177.85,416.86z M178.33,406.07l20.83-4.86c-0.39-1.62-0.77-3.26-1.11-4.9      c-6.88,1.42-13.78,2.84-20.66,4.26C177.7,402.42,178.01,404.25,178.33,406.07 M157.37,395.14c13.09-2.06,26.19-4.13,39.28-6.2      c-0.22-1.36-0.43-2.75-0.62-4.12c-13.06,2.02-26.11,4.04-39.16,6.05C157.02,392.32,157.19,393.73,157.37,395.14 M182.47,377.85      c4.22-0.34,8.42-0.68,12.63-1.01c-0.19-2.07-0.35-4.14-0.46-6.22c-4.16,0.23-8.33,0.45-12.49,0.67      C182.26,373.47,182.36,375.66,182.47,377.85 M110,370.53c28.17-0.86,56.35-1.72,84.53-2.58c-0.12-2.93-0.16-5.87-0.11-8.81      c-28.31,0.43-56.6,0.86-84.91,1.29C109.67,363.78,109.84,367.16,110,370.53 M167.98,348.34l26.74,2.42      c0.11-1.84,0.27-3.7,0.44-5.54l-26.69-2.32L167.98,348.34z M185.44,324.09c4.16,0.97,8.32,1.95,12.47,2.92      c0.43-2.11,0.92-4.23,1.44-6.32c-3.99-1.15-7.98-2.33-11.96-3.49C186.74,319.49,186.1,321.8,185.44,324.09 M131.29,328.5      l64.6,10.44c0.25-1.9,0.53-3.8,0.87-5.69l-64.6-10.14L131.29,328.5z M173.32,311.11c8.87,2.44,17.74,4.87,26.62,7.31      c0.27-1.05,0.56-2.1,0.86-3.15c-8.75-2.81-17.51-5.6-26.25-8.4L173.32,311.11z M164.2,296.31c12.8,4.34,25.61,8.68,38.41,13.04      c0.44-1.36,0.91-2.72,1.39-4.08l-37.82-13.2C165.5,293.48,164.85,294.89,164.2,296.31 M402.18,197.55      c19.18,4.58,37.77,12.6,54.85,24.12c0.03-0.08,0.06-0.15,0.09-0.23c-16.89-12.33-34.82-22.37-53.39-30.21      C403.24,193.17,402.73,195.28,402.18,197.55 M232.65,236.41c2.9,2.77,5.79,5.54,8.7,8.31c0.56-0.58,1.14-1.17,1.72-1.76      c-2.83-2.74-5.63-5.48-8.46-8.22C233.95,235.3,233.31,235.86,232.65,236.41 M395.3,196.06c1.62,0.32,3.23,0.66,4.85,1.01      c0.4-2.27,0.81-4.55,1.21-6.82c-1.49-0.61-2.99-1.21-4.49-1.79C396.35,191,395.83,193.53,395.3,196.06 M246.13,223.89      c2.48,3.1,4.96,6.2,7.43,9.3c0.64-0.54,1.29-1.09,1.93-1.64c-2.43-3.14-4.86-6.27-7.3-9.41      C247.5,222.74,246.82,223.32,246.13,223.89 M199.29,233.81c10.18,8.08,20.36,16.17,30.54,24.25c1.26-1.62,2.55-3.22,3.88-4.8      c-10.31-8-20.61-16.01-30.92-24.01C201.61,230.78,200.45,232.29,199.29,233.81 M261.78,212.02c2.11,3.34,4.24,6.7,6.35,10.04      c1.42-0.97,2.86-1.91,4.32-2.85c-2.09-3.36-4.18-6.72-6.26-10.08L261.78,212.02z M370.91,193.13c3.92,0.18,7.84,0.5,11.73,0.97      c0.45-3.42,0.91-6.83,1.36-10.24c-4-1.32-8.03-2.55-12.09-3.67C371.57,184.48,371.24,188.8,370.91,193.13 M358.67,192.99      c1.71-0.04,3.43-0.06,5.16-0.04c0.12-4.94,0.22-9.87,0.34-14.81c-2.1-0.51-4.19-1-6.31-1.47      C358.14,182.12,358.4,187.55,358.67,192.99 M167.55,228.23c11.55,8.03,23.1,16.09,34.64,24.12c-0.74,1.18-1.48,2.34-2.22,3.51      c7.19,4.6,14.38,9.22,21.57,13.82c1.77-2.72,3.63-5.41,5.58-8.06l-56.45-38.15C169.65,225.05,168.59,226.63,167.55,228.23       M144.68,231.94c20.7,12.61,41.39,25.24,62.08,37.86c-1.94,3.86-3.88,7.71-5.81,11.57c-16.28-7.39-32.57-14.78-48.85-22.17      c-0.57,1.47-1.13,2.94-1.7,4.41c19.72,9.32,39.42,18.64,59.12,27.96c3.24-7.08,6.98-14,11.27-20.7l-73.9-42.54      C146.15,229.53,145.41,230.73,144.68,231.94 M340.66,194.41c1.24-0.17,2.48-0.32,3.72-0.46c-0.54-6.72-1.09-13.44-1.63-20.17      c-1.25-0.2-2.51-0.38-3.76-0.58C339.53,180.29,340.1,187.36,340.66,194.41 M329.5,196.27c1.78-0.36,3.57-0.69,5.36-0.99      c-1.24-7.69-2.47-15.39-3.71-23.1c-2.03-0.23-4.07-0.44-6.11-0.63C326.54,179.8,328.02,188.03,329.5,196.27 M238.93,195.51      c7.45,10.48,14.91,20.98,22.36,31.46c1.01-0.75,2.02-1.52,3.05-2.26c-7.37-10.43-14.73-20.85-22.09-31.26      C241.14,194.13,240.03,194.82,238.93,195.51 M317.75,199.08c0.88-0.25,1.77-0.48,2.67-0.71c-2.24-9.21-4.48-18.4-6.72-27.61      c-1.19-0.06-2.4-0.11-3.59-0.16L317.75,199.08z M300.77,204.78c2-0.79,4.02-1.54,6.04-2.25c-3.94-10.67-7.88-21.36-11.8-32.03      c-2.71,0.06-5.41,0.14-8.11,0.28C291.52,182.1,296.14,193.44,300.77,204.78 M282.96,213.05c4.73-2.54,9.56-4.85,14.47-6.91      l-5.13-10.7c-1.41,0.68-2.82,1.36-4.22,2.02c-2.29-4.94-4.58-9.89-6.87-14.82c-1.31,0.58-2.6,1.17-3.92,1.75      c2.67,5.5,5.33,11.01,8,16.52c-1.09,0.48-2.2,0.96-3.29,1.45c-5.06-9.93-10.11-19.86-15.16-29.81c-1.7,0.22-3.41,0.45-5.11,0.7      C268.82,186.51,275.89,199.78,282.96,213.05 M276.99,216.42c1.34-0.8,2.67-1.56,4.03-2.31l-22.26-40.42      c-1.91,0.3-3.84,0.62-5.75,0.97C261,188.59,268.99,202.51,276.99,216.42 M204.18,188.35c14.97,16.26,29.94,32.54,44.9,48.81      c1.06-0.97,2.12-1.93,3.2-2.85c-13.79-16.14-27.59-32.29-41.39-48.44C208.66,186.66,206.42,187.48,204.18,188.35"/>
			</defs>
			<clipPath id="SVGID_00000072259062647496461540000018421467172822442167_">
				<use xlink:href="#SVGID_00000107579039028722040640000009822603141288905377_" style="overflow:visible;"/>
			</clipPath>
			
				<linearGradient id="SVGID_00000138543234156013659350000002945539525272197302_" gradientUnits="userSpaceOnUse" x1="158.9724" y1="987.1064" x2="159.9724" y2="987.1064" gradientTransform="matrix(102.1059 346.8842 346.8842 -102.1059 -358392.0938 45839.9609)">
				<stop offset="0" style="stop-color:#CD5932"/>
				<stop offset="0.2254" style="stop-color:#CD5932"/>
				<stop offset="0.3611" style="stop-color:#C85532"/>
				<stop offset="0.5215" style="stop-color:#BA4930"/>
				<stop offset="0.6936" style="stop-color:#A2362E"/>
				<stop offset="0.8547" style="stop-color:#851E2C"/>
				<stop offset="1" style="stop-color:#851E2C"/>
			</linearGradient>
			
				<polygon style="clip-path:url(#SVGID_00000072259062647496461540000018421467172822442167_);fill:url(#SVGID_00000138543234156013659350000002945539525272197302_);" points="     429.05,118.25 562.5,571.62 193.86,680.12 60.41,226.76    "/>
		</g>
	</g>
</g>
<g>
	<g>
		<g>
			<defs>
				<path id="SVGID_00000070834768343244552040000005106938608020610482_" d="M393.48,551.95c3.13,0.38,6.24,0.7,9.37,0.97      c-1.45-8.38-2.92-16.77-4.37-25.15c-2.8,0.59-5.62,1.12-8.45,1.56C391.19,536.88,392.34,544.41,393.48,551.95 M384.78,550.74      c1.06,0.17,2.11,0.32,3.17,0.48l-1.78-21.31c-0.98,0.13-1.96,0.25-2.95,0.37C383.75,537.1,384.27,543.91,384.78,550.74       M431.45,517.2c5.54,11.94,11.08,23.88,16.63,35.82c2.01-0.17,4.04-0.35,6.04-0.56c-6.19-12.37-12.39-24.74-18.58-37.11      C434.18,515.98,432.82,516.6,431.45,517.2 M377.63,549.52c0.69,0.12,1.37,0.25,2.06,0.38c-0.53-6.36-1.07-12.73-1.6-19.1      c-0.68,0.06-1.35,0.11-2.03,0.16L377.63,549.52z M454.51,504.85c6.81,11.15,13.6,22.32,20.4,33.48      c1.71-1.03,3.41-2.06,5.13-3.09c-7.35-10.9-14.69-21.8-22.03-32.7C456.86,503.32,455.69,504.1,454.51,504.85 M463.59,498.6      c11.16,15.25,22.31,30.49,33.45,45.75c2.92-0.8,5.82-1.66,8.72-2.56c-8.45-11.11-16.87-22.23-25.31-33.34      c1.12-0.87,2.26-1.73,3.38-2.6l29.76,33.36c1.85-0.64,3.68-1.3,5.5-1.98c-11.79-13.22-23.59-26.45-35.41-39.67      c1.14-1.1,2.27-2.21,3.41-3.31c11.48,11.16,22.96,22.32,34.43,33.47c1.74-1.9,3.48-3.79,5.23-5.68      c-14.21-13.8-28.41-27.61-42.6-41.41C477.71,487.26,470.83,493.24,463.59,498.6 M316.09,530.06c1.6,0.75,3.21,1.5,4.81,2.26      c0.55-1.97,1.09-3.95,1.64-5.93c-1.5-0.38-3-0.78-4.5-1.2C317.4,526.8,316.75,528.43,316.09,530.06 M310.37,527.34l3.7,1.77      c0.59-1.52,1.18-3.03,1.77-4.55c-1.32-0.38-2.64-0.8-3.96-1.22C311.39,524.67,310.88,526.01,310.37,527.34 M496,467.14      c8.28,6,16.54,12,24.8,18.01c0.92-1.35,1.84-2.69,2.77-4.04c-8.27-5.87-16.53-11.72-24.8-17.59      C497.88,464.73,496.96,465.94,496,467.14 M284.03,512.88c3.86,2.44,7.78,4.78,11.72,6.99c0.36-0.74,0.72-1.47,1.08-2.22      c-4.13-1.78-8.22-3.74-12.24-5.89C284.4,512.15,284.21,512.52,284.03,512.88 M510.58,445.37c8.37,4.28,16.74,8.55,25.1,12.81      c0.81-1.52,1.62-3.05,2.43-4.56c-8.44-4.12-16.86-8.24-25.29-12.36C512.09,442.65,511.35,444,510.58,445.37 M522.42,419.36      c0.7,0.33,1.39,0.65,2.09,0.98c11.71,4.06,23.4,8.11,35.1,12.15c0.72-2,1.45-3.99,2.17-5.98c-12.57-4-25.15-7.99-37.72-11.98      C523.53,416.15,522.98,417.74,522.42,419.36 M527.01,404.17c24.49,4.78,48.99,9.56,73.48,14.34c0.1-1.27,0.19-2.54,0.3-3.81      c-20.29-3.98-40.58-7.96-60.87-11.96c0.38-1.54,0.77-3.1,1.15-4.64c5.48,1.01,10.98,2.01,16.45,3.01      c0.38-2.31,0.77-4.62,1.15-6.93c-9.58-1.34-19.15-2.7-28.74-4.05C529.14,394.84,528.18,399.52,527.01,404.17 M531.83,372.51      c19.61,1.05,39.23,2.1,58.84,3.14c0.11-1.83,0.21-3.66,0.32-5.5c9.14,0.15,18.29,0.29,27.44,0.44c0.1-2.44,0.19-4.89,0.28-7.33      l-74.36-0.17c-0.05-2.23-0.11-4.47-0.16-6.71c-4.07,0.04-8.13,0.07-12.21,0.11C532.17,361.82,532.13,367.17,531.83,372.51       M531.91,354.94c20.66-1.89,41.32-3.79,61.98-5.69c-0.26-2.08-0.52-4.16-0.79-6.24c-20.54,1.84-41.09,3.69-61.63,5.54      C531.66,350.67,531.8,352.8,531.91,354.94 M531.15,345.06c13.21-1.21,26.41-2.44,39.61-3.66l-0.53-7.51      c-13.27,1.77-26.54,3.51-39.81,5.28C530.69,341.12,530.93,343.09,531.15,345.06 M529.79,335.15      c10.28-1.71,20.55-3.41,30.83-5.14c-0.12-1.17-0.23-2.34-0.35-3.51c-10.39,1.61-20.77,3.21-31.16,4.83      C529.36,332.6,529.57,333.88,529.79,335.15 M527.31,323.03l6.07-1.43l-1-4.34c22.05-6.08,44.1-12.13,66.16-18.2      c-0.55-2.03-1.1-4.08-1.64-6.14c-13.66,3.67-27.31,7.34-40.97,11l-1.27-4.26l-31.79,8.18      C524.58,312.84,526.07,317.91,527.31,323.03 M514.69,288.27c3.02,6.12,5.66,12.4,7.9,18.8l59.06-20.89l-2.17-6.18l-10.21,3.56      l-2.08-5.29l-37.5,14.69l22.16-10.15l-1.93-4.52c9.77-4.43,19.55-8.86,29.33-13.28c-0.85-1.85-1.7-3.71-2.54-5.56      C556.04,269.04,535.36,278.67,514.69,288.27 M510.48,280.28c0.5,0.88,0.99,1.77,1.46,2.65c11.84-6.49,23.67-12.98,35.51-19.48      c-0.52-0.99-1.04-1.98-1.56-2.97L510.48,280.28z M505.55,272.05c1.02,1.59,2.01,3.19,2.96,4.8c3.51-2.24,7.02-4.48,10.53-6.71      c-0.76-1.55-1.52-3.11-2.28-4.67C512.83,267.81,509.09,269.99,505.55,272.05 M499.43,263.15c0.62,0.84,1.21,1.68,1.82,2.52      c16.2-11,36.74-24.72,61.63-41.2c-0.95-1.27-1.91-2.55-2.87-3.84C539.81,234.83,519.61,248.99,499.43,263.15 M488.37,249.66      c1.37,1.52,2.71,3.04,4.02,4.58c17.03-12.98,34.07-25.96,51.11-38.94c-1.29-1.83-2.58-3.65-3.87-5.47      C522.53,223.1,505.46,236.38,488.37,249.66 M476.42,237.78c1.25,1.13,2.48,2.27,3.69,3.42c9.3-9.24,18.6-18.5,27.89-27.73      l-1.77-1.8C496.3,220.37,486.36,229.08,476.42,237.78 M467.47,230.22c0.46,0.38,0.91,0.76,1.37,1.14      c1.05,0.85,2.12,1.72,3.17,2.59c4.96-5.7,9.9-11.4,14.84-17.09c-1.73-1.32-3.44-2.64-5.17-3.97      C476.95,218.66,472.22,224.44,467.47,230.22 M376.32,181.55c1.24,0.37,2.48,0.75,3.71,1.14c1-9.18,1.99-18.35,2.98-27.53      c-1.46-0.16-2.91-0.33-4.37-0.5C377.87,163.62,377.1,172.58,376.32,181.55 M403.66,191.37c19.64,8.3,38.54,19.11,56.26,32.43      c14.76-21.05,29.52-42.11,44.28-63.15c-1.19-0.69-2.38-1.38-3.58-2.07l-38.3,52.48c-4.73-2.89-9.46-5.78-14.2-8.66      c8.65-18.03,17.3-36.07,25.95-54.09c-2.88-1.42-5.76-2.82-8.65-4.23c-10.24,19.03-20.48,38.07-30.72,57.1      c-7.02-2.64-14.04-5.29-21.05-7.93c5.19-18.88,10.35-37.76,15.54-56.64c-3.63-0.82-7.27-1.64-10.9-2.46      C413.41,153.21,408.54,172.29,403.66,191.37 M280.46,156.66c2.1,4.71,4.18,9.4,6.29,14.1c7.15-0.36,14.29-0.43,21.46-0.22      l-2.14-7.88c-4.25,1.45-8.49,2.91-12.74,4.35c-1.51-4.55-3.03-9.09-4.53-13.63L280.46,156.66z M388.1,185.35      c1.99,0.69,3.97,1.42,5.94,2.17l11.52-68.83c-2.02-0.36-4.02-0.72-6.04-1.05C395.71,140.2,391.9,162.78,388.1,185.35       M361.63,177.61c1.24,0.29,2.48,0.6,3.72,0.91c0.93-17.59,1.84-35.18,2.78-52.78c-1.33-0.04-2.65-0.07-3.98-0.11      C363.31,142.97,362.46,160.28,361.63,177.61 M241.89,153.39c4.09,7,8.19,14,12.28,21.01c4.17-0.72,8.38-1.35,12.58-1.89      c-4.73-8.45-9.46-16.9-14.18-25.35C249,149.25,245.44,151.31,241.89,153.39 M300.51,132.63c3.11,12.67,6.23,25.32,9.34,37.98      c1.32,0.05,2.6,0.1,3.93,0.17c-3.28-13.05-6.54-26.09-9.81-39.14C302.83,131.96,301.66,132.29,300.51,132.63 M325.07,171.6      c6.04,0.56,12.08,1.34,18.09,2.32c-1.52-14.58-3.03-29.17-4.54-43.75c-0.84,0.09-1.69,0.19-2.53,0.28      c1.07,10.84,2.15,21.67,3.22,32.51c-3.82,0.43-7.63,0.86-11.45,1.29c-2.49-13.9-4.98-27.81-7.48-41.71l-3.99,0.75      C319.27,139.39,322.17,155.5,325.07,171.6"/>
			</defs>
			<clipPath id="SVGID_00000044151025840879078280000007330040657893227187_">
				<use xlink:href="#SVGID_00000070834768343244552040000005106938608020610482_" style="overflow:visible;"/>
			</clipPath>
			
				<linearGradient id="SVGID_00000016761019457692505970000010380801488170078628_" gradientUnits="userSpaceOnUse" x1="158.7607" y1="986.0654" x2="159.7607" y2="986.0654" gradientTransform="matrix(53.1217 203.3221 203.3221 -53.1217 -208523.2344 20344.6387)">
				<stop offset="0" style="stop-color:#E0A4B6"/>
				<stop offset="0.5093" style="stop-color:#706CA4"/>
				<stop offset="0.7701" style="stop-color:#3C529B"/>
				<stop offset="1" style="stop-color:#3C529B"/>
			</linearGradient>
			
				<polygon style="clip-path:url(#SVGID_00000044151025840879078280000007330040657893227187_);fill:url(#SVGID_00000016761019457692505970000010380801488170078628_);" points="     541.36,62.52 656.79,504.32 302.77,596.81 187.35,155.02    "/>
		</g>
	</g>
</g>
<line class="st4" x1="263.17" y1="85.1" x2="327.87" y2="268.37"/>
<line class="st5" x1="88.14" y1="76.12" x2="274.77" y2="261.96"/>
<line class="st6" x1="163.23" y1="282.14" x2="250.62" y2="315.66"/>
<line class="st7" x1="1.16" y1="371.38" x2="141.82" y2="364.7"/>
<line class="st4" x1="231.55" y1="372.99" x2="157.63" y2="381.39"/>
<line class="st8" x1="155.01" y1="407.22" x2="89.31" y2="421.93"/>
<line class="st9" x1="274.94" y1="394.37" x2="185.71" y2="427.3"/>
<line class="st10" x1="252.22" y1="425.29" x2="144.53" y2="486.83"/>
<line class="st6" x1="280.56" y1="433.74" x2="155.41" y2="535.9"/>
<line class="st5" x1="262.32" y1="468.27" x2="83.77" y2="656.03"/>
<line class="st5" x1="261.9" y1="546.91" x2="188.77" y2="674.21"/>
<line class="st9" x1="343.07" y1="477.8" x2="328.29" y2="550.47"/>
<line class="st9" x1="363.99" y1="464.74" x2="354.71" y2="586.53"/>
<line class="st6" x1="388.73" y1="644.69" x2="394.09" y2="704.19"/>
<line class="st5" x1="466.09" y1="467.8" x2="641.01" y2="639.83"/>
<line class="st8" x1="444.55" y1="477" x2="541.35" y2="633.92"/>
<line class="st4" x1="423.9" y1="466.51" x2="457.91" y2="532.55"/>
<line class="st9" x1="497.52" y1="456.37" x2="554.62" y2="496.66"/>
<line class="st6" x1="505.48" y1="414.57" x2="589.64" y2="447.58"/>
<line class="st5" x1="600.82" y1="388.44" x2="716.34" y2="403.35"/>
<line class="st9" x1="478.09" y1="348.86" x2="693.91" y2="328.06"/>
<line class="st9" x1="550.22" y1="292.77" x2="461" y2="325.7"/>
<line class="st5" x1="449.73" y1="258.68" x2="648.32" y2="19.75"/>
<line class="st6" x1="453.46" y1="192.17" x2="435.59" y2="228.28"/>
<line class="st11" x1="401.44" y1="215.44" x2="385.18" y2="276.64"/>
<line class="st6" x1="345.04" y1="97.1" x2="356.12" y2="233.49"/>
<g>
	<g>
		<g>
			<defs>
				<path id="SVGID_00000169552207048057101750000002051723521091115965_" d="M640.93,573.1l45.39,34.92L640.93,573.1z"/>
			</defs>
			<clipPath id="SVGID_00000181070375201347140650000000180026966387276425_">
				<use xlink:href="#SVGID_00000169552207048057101750000002051723521091115965_" style="overflow:visible;"/>
			</clipPath>
			
				<linearGradient id="SVGID_00000114794367085881586780000002563008067374871171_" gradientUnits="userSpaceOnUse" x1="140.3207" y1="993.1277" x2="141.3208" y2="993.1277" gradientTransform="matrix(33.5092 -9.0551 -9.0551 -33.5092 4937.7104 35144.6602)">
				<stop offset="0" style="stop-color:#851F2B"/>
				<stop offset="0.3468" style="stop-color:#851F2B"/>
				<stop offset="0.7653" style="stop-color:#851F2B"/>
				<stop offset="1" style="stop-color:#851F2B"/>
			</linearGradient>
			
				<polygon style="clip-path:url(#SVGID_00000181070375201347140650000000180026966387276425_);fill:url(#SVGID_00000114794367085881586780000002563008067374871171_);" points="     640.93,573.1 674.43,564.05 686.32,608.02 652.81,617.07    "/>
		</g>
	</g>
</g>
<polygon class="st13" points="641.48,572.38 686.32,608.02 640.37,573.82 "/>
<g>
	<g>
		<g>
			<defs>
				<path id="SVGID_00000041259113276344925540000001672389772525267388_" d="M580.16,653.23c5.43,7.39,9.15,12.17,14.58,19.56      l2.09-1.53c-5.47-7.39-9.22-12.16-14.69-19.54C581.49,652.22,580.83,652.71,580.16,653.23"/>
			</defs>
			<clipPath id="SVGID_00000019672540772158935330000016810255703700174769_">
				<use xlink:href="#SVGID_00000041259113276344925540000001672389772525267388_" style="overflow:visible;"/>
			</clipPath>
			
				<linearGradient id="SVGID_00000050657541420960352800000015986860401665165443_" gradientUnits="userSpaceOnUse" x1="-45.8073" y1="1122.8448" x2="-44.8073" y2="1122.8448" gradientTransform="matrix(2.2275 -1.6354 -1.6354 -2.2275 2525.7456 3089.3486)">
				<stop offset="0" style="stop-color:#851F2B"/>
				<stop offset="0.3468" style="stop-color:#851F2B"/>
				<stop offset="0.7653" style="stop-color:#851E2C"/>
				<stop offset="1" style="stop-color:#851E2C"/>
			</linearGradient>
			
				<polygon style="clip-path:url(#SVGID_00000019672540772158935330000016810255703700174769_);fill:url(#SVGID_00000050657541420960352800000015986860401665165443_);" points="     573.04,657.37 588.47,646.03 603.95,667.12 588.51,678.44    "/>
		</g>
	</g>
</g>
<g>
	<g>
		<g>
			<defs>
				<path id="SVGID_00000169549526437484206880000015910852134195338368_" d="M178.33,678.73l24.68-40.51L178.33,678.73z"/>
			</defs>
			<clipPath id="SVGID_00000119113262222722780530000005014062635868594326_">
				<use xlink:href="#SVGID_00000169549526437484206880000015910852134195338368_" style="overflow:visible;"/>
			</clipPath>
			
				<linearGradient id="SVGID_00000096036446655558162510000016102410378787665573_" gradientUnits="userSpaceOnUse" x1="155.112" y1="963.7893" x2="156.112" y2="963.7893" gradientTransform="matrix(5.8463 25.7172 25.7172 -5.8463 -25504.8691 2292.1733)">
				<stop offset="0" style="stop-color:#CD5932"/>
				<stop offset="0.3468" style="stop-color:#CD5932"/>
				<stop offset="0.7653" style="stop-color:#851E2C"/>
				<stop offset="1" style="stop-color:#851E2C"/>
			</linearGradient>
			
				<polygon style="clip-path:url(#SVGID_00000119113262222722780530000005014062635868594326_);fill:url(#SVGID_00000096036446655558162510000016102410378787665573_);" points="     204.29,637.92 211.83,671.1 177.05,679.02 169.49,645.82    "/>
		</g>
	</g>
</g>
<line class="st16" x1="203" y1="638.21" x2="178.33" y2="678.73"/>
<g>
	<g>
		<g>
			<defs>
				<path id="SVGID_00000081610334266301466370000000508506502457078710_" d="M680.46,527.16l27.21,14.56L680.46,527.16z"/>
			</defs>
			<clipPath id="SVGID_00000027575847557643942280000007818850509780681397_">
				<use xlink:href="#SVGID_00000081610334266301466370000000508506502457078710_" style="overflow:visible;"/>
			</clipPath>
			
				<linearGradient id="SVGID_00000106147189093769284880000016664777043809432734_" gradientUnits="userSpaceOnUse" x1="150.3351" y1="949.575" x2="151.3351" y2="949.575" gradientTransform="matrix(4.6315 16.0381 16.0381 -4.6315 -15233.6719 2513.9937)">
				<stop offset="0" style="stop-color:#CD5932"/>
				<stop offset="0.3468" style="stop-color:#CD5932"/>
				<stop offset="0.7653" style="stop-color:#851E2C"/>
				<stop offset="1" style="stop-color:#851E2C"/>
			</linearGradient>
			
				<polygon style="clip-path:url(#SVGID_00000027575847557643942280000007818850509780681397_);fill:url(#SVGID_00000106147189093769284880000016664777043809432734_);" points="     702.04,520.93 708.02,541.63 686.09,547.96 680.11,527.26    "/>
		</g>
	</g>
</g>
<line class="st18" x1="680.46" y1="527.17" x2="707.68" y2="541.73"/>
<g>
	<g>
		<g>
			<defs>
				<path id="SVGID_00000018202014986339084320000012192796394867677057_" d="M722.64,470.77l-12.39-4.04L722.64,470.77z"/>
			</defs>
			<clipPath id="SVGID_00000087409462835856777100000016020018938435468176_">
				<use xlink:href="#SVGID_00000018202014986339084320000012192796394867677057_" style="overflow:visible;"/>
			</clipPath>
			
				<linearGradient id="SVGID_00000111875512221925486950000017472793937675421857_" gradientUnits="userSpaceOnUse" x1="134.0868" y1="869.1791" x2="135.0868" y2="869.1791" gradientTransform="matrix(1.4395 5.3319 5.3319 -1.4395 -4111.5684 1002.5606)">
				<stop offset="0" style="stop-color:#CD5932"/>
				<stop offset="0.3468" style="stop-color:#CD5932"/>
				<stop offset="0.7653" style="stop-color:#851E2C"/>
				<stop offset="1" style="stop-color:#851E2C"/>
			</linearGradient>
			
				<polygon style="clip-path:url(#SVGID_00000087409462835856777100000016020018938435468176_);fill:url(#SVGID_00000111875512221925486950000017472793937675421857_);" points="     710.26,466.73 720.79,463.88 722.64,470.77 712.11,473.62    "/>
		</g>
	</g>
</g>
<line class="st20" x1="710.26" y1="466.73" x2="722.66" y2="470.77"/>
<g>
	<g>
		<g>
			<defs>
				<path id="SVGID_00000088124950634624717560000005960868000577756565_" d="M3.82,224.94l22.24,8.55L3.82,224.94z"/>
			</defs>
			<clipPath id="SVGID_00000020374465720796563330000010939841720327259542_">
				<use xlink:href="#SVGID_00000088124950634624717560000005960868000577756565_" style="overflow:visible;"/>
			</clipPath>
			
				<linearGradient id="SVGID_00000003810829779859561900000017109807972956102078_" gradientUnits="userSpaceOnUse" x1="124.988" y1="996.3666" x2="125.9885" y2="996.3666" gradientTransform="matrix(18.5787 -5.0205 -5.0205 -18.5787 2685.7971 19370.4727)">
				<stop offset="0" style="stop-color:#E0A4B6"/>
				<stop offset="0.0475" style="stop-color:#E0A4B6"/>
				<stop offset="0.5222" style="stop-color:#706CA4"/>
				<stop offset="0.7653" style="stop-color:#3C529B"/>
				<stop offset="1" style="stop-color:#3C529B"/>
			</linearGradient>
			
				<polygon style="clip-path:url(#SVGID_00000020374465720796563330000010939841720327259542_);fill:url(#SVGID_00000003810829779859561900000017109807972956102078_);" points="     3.82,224.94 22.41,219.93 26.08,233.49 7.49,238.51    "/>
		</g>
	</g>
</g>
<line class="st22" x1="26.06" y1="233.49" x2="3.82" y2="224.94"/>
<line class="st23" x1="653.93" y1="200.86" x2="675.32" y2="188.96"/>
<line class="st24" x1="667.88" y1="232.74" x2="692.77" y2="223.22"/>
<line class="st25" x1="678.01" y1="259.52" x2="701.32" y2="252.45"/>
</svg>